<svg width="500" height="500" viewBox="0 0 500 500" fill="none" xmlns="http://www.w3.org/2000/svg">
<path d="M180.33 183.4C182.09 195.317 180.275 207.488 175.115 218.373C169.955 229.258 161.682 238.368 151.342 244.549C141.003 250.73 129.062 253.705 117.031 253.097C105.001 252.489 93.4205 248.326 83.7567 241.134C74.093 233.942 66.78 224.045 62.7433 212.696C58.7066 201.346 58.1276 189.054 61.0797 177.375C64.0318 165.696 70.3821 155.156 79.3271 147.087C88.2721 139.019 99.4096 133.786 111.33 132.05C127.289 129.71 143.525 133.805 156.465 143.435C169.405 153.065 177.989 167.441 180.33 183.4Z" fill="#F5F5F5"/>
<path d="M166 185.49C167.339 194.571 165.954 203.845 162.02 212.138C158.086 220.431 151.781 227.371 143.901 232.08C136.022 236.788 126.923 239.053 117.755 238.587C108.588 238.122 99.7651 234.948 92.4027 229.467C85.0402 223.985 79.4694 216.442 76.3952 207.793C73.3211 199.145 72.8819 189.778 75.1331 180.879C77.3844 171.981 82.2249 163.95 89.042 157.804C95.8592 151.657 104.347 147.671 113.43 146.35C119.452 145.468 125.589 145.78 131.49 147.27C137.391 148.759 142.94 151.396 147.822 155.031C152.704 158.666 156.822 163.226 159.941 168.452C163.06 173.679 165.119 179.468 166 185.49Z" fill="#EBEBEB"/>
<path d="M165.77 184.05C165.5 184.05 165.01 182.11 163.77 178.71C162.023 173.922 159.547 169.432 156.43 165.4C154.278 162.656 151.834 160.154 149.14 157.94C146.043 155.427 142.635 153.323 139 151.68C137.042 150.783 135.02 150.034 132.95 149.44C130.8 148.803 128.603 148.338 126.38 148.05C124.084 147.732 121.767 147.594 119.45 147.64C117.06 147.698 114.677 147.928 112.32 148.33C109.97 148.766 107.655 149.367 105.39 150.13C103.193 150.889 101.056 151.815 99 152.9C97.0144 153.946 95.1121 155.143 93.31 156.48C91.5732 157.747 89.9351 159.145 88.41 160.66C85.5637 163.442 83.0898 166.582 81.05 170C79.2802 173.004 77.8449 176.193 76.77 179.51C75.2326 184.361 74.4534 189.421 74.46 194.51C74.46 198.14 74.69 200.17 74.46 200.22C74.23 200.27 73.56 198.3 73.13 194.58C72.5699 189.283 73.0041 183.928 74.41 178.79C75.3752 175.218 76.7616 171.774 78.54 168.53C80.6005 164.793 83.157 161.352 86.14 158.3C87.7454 156.638 89.4809 155.106 91.33 153.72C93.2433 152.247 95.2733 150.933 97.4 149.79C99.6078 148.611 101.905 147.608 104.27 146.79C106.706 145.935 109.203 145.266 111.74 144.79C114.282 144.355 116.852 144.111 119.43 144.06C121.932 144.025 124.434 144.189 126.91 144.55C129.302 144.897 131.662 145.432 133.97 146.15C136.183 146.814 138.34 147.654 140.42 148.66C144.273 150.501 147.859 152.856 151.08 155.66C153.866 158.094 156.354 160.85 158.49 163.87C161.578 168.212 163.83 173.092 165.13 178.26C166 181.94 166 184 165.77 184.05Z" fill="#E0E0E0"/>
<path d="M129.25 218.79L130.53 226.79L123.41 227.93L122.16 220.17C115.04 220.87 107.92 219.74 103.51 217.31L106 208C110.55 210.194 115.59 211.173 120.63 210.84L118.72 198.94C110.51 198.29 101.25 197.06 99.62 186.87C98.41 179.32 102.86 171.96 113.91 168.87L112.64 160.96L119.77 159.82L121.01 167.58C126.15 167.044 131.344 167.73 136.17 169.58L134.01 178.92C130.352 177.494 126.445 176.814 122.52 176.92L124.46 189.03C132.66 189.62 141.78 190.86 143.39 200.91C144.61 208.37 140.22 215.65 129.25 218.79ZM117.09 188.44L115.47 178.32C111.83 179.78 110.66 182.09 111.04 184.44C111.42 186.79 113.79 188 117.09 188.44ZM132.09 203.65C131.69 201.15 129.41 200.13 126.17 199.55L127.75 209.39C131.19 208 132.46 205.93 132.09 203.65Z" fill="#E0E0E0"/>
<path d="M401.39 128.67C405.946 136.146 408.181 144.805 407.813 153.551C407.445 162.298 404.491 170.739 399.324 177.805C394.156 184.872 387.009 190.247 378.785 193.249C370.562 196.252 361.633 196.747 353.128 194.672C344.623 192.597 336.925 188.046 331.008 181.594C325.091 175.142 321.221 167.08 319.888 158.427C318.555 149.775 319.82 140.922 323.521 132.988C327.222 125.055 333.194 118.398 340.68 113.86C345.638 110.845 351.142 108.837 356.877 107.949C362.612 107.062 368.465 107.313 374.103 108.689C379.741 110.064 385.052 112.536 389.734 115.965C394.416 119.393 398.377 123.711 401.39 128.67Z" fill="#F5F5F5"/>
<path d="M392.39 134.12C395.864 139.817 397.57 146.417 397.291 153.084C397.012 159.751 394.761 166.186 390.824 171.573C386.886 176.96 381.439 181.058 375.171 183.348C368.903 185.638 362.097 186.016 355.614 184.436C349.131 182.855 343.262 179.387 338.752 174.47C334.241 169.552 331.29 163.407 330.274 156.812C329.257 150.217 330.22 143.468 333.041 137.421C335.862 131.374 340.414 126.299 346.12 122.84C353.753 118.204 362.914 116.788 371.59 118.903C380.266 121.018 387.747 126.491 392.39 134.12Z" fill="#EBEBEB"/>
<path d="M391.84 133.22C391.67 133.34 390.78 132.15 388.97 130.22C386.449 127.51 383.52 125.209 380.29 123.4C378.072 122.169 375.724 121.186 373.29 120.47C370.505 119.667 367.628 119.223 364.73 119.15C363.167 119.11 361.603 119.183 360.05 119.37C358.432 119.555 356.83 119.866 355.26 120.3C353.631 120.736 352.039 121.301 350.5 121.99C347.323 123.413 344.388 125.322 341.8 127.65C340.546 128.777 339.383 130.001 338.32 131.31C336.294 133.783 334.646 136.543 333.43 139.5C332.313 142.176 331.55 144.986 331.16 147.86C330.828 150.37 330.771 152.908 330.99 155.43C331.335 159.115 332.249 162.725 333.7 166.13C334.7 168.56 335.46 169.86 335.29 169.97C335.12 170.08 334.14 168.97 332.8 166.58C330.926 163.193 329.698 159.486 329.18 155.65C328.814 152.999 328.763 150.313 329.03 147.65C329.529 142.883 331.014 138.272 333.39 134.11C334.275 132.584 335.278 131.129 336.39 129.76C337.521 128.326 338.769 126.988 340.12 125.76C342.888 123.223 346.058 121.161 349.5 119.66C351.165 118.924 352.888 118.326 354.65 117.87C356.346 117.419 358.074 117.105 359.82 116.93C361.48 116.752 363.152 116.705 364.82 116.79C370.623 117.014 376.27 118.736 381.21 121.79C384.507 123.818 387.396 126.443 389.73 129.53C391.36 131.76 392 133.14 391.84 133.22Z" fill="#E0E0E0"/>
<path d="M377.25 166.82L380.36 171.82L375.92 174.6L372.92 169.76C368.35 172.24 363.27 173.51 359.62 173.13L358.67 166.13C362.339 166.314 365.992 165.538 369.27 163.88L364.62 156.46C358.94 158.35 352.4 160.16 348.42 153.8C345.47 149.09 346.36 142.9 352.88 137.71L349.79 132.77L354.24 129.99L357.24 134.84C360.544 133.027 364.233 132.029 368 131.93L369.2 138.79C366.349 138.885 363.545 139.544 360.95 140.73L365.68 148.29C371.34 146.35 377.79 144.61 381.68 150.87C384.57 155.49 383.7 161.61 377.25 166.82ZM360.5 150L356.55 143.69C354.55 145.69 354.4 147.57 355.32 149.04C356.24 150.51 358.16 150.56 360.5 150ZM374.85 155.92C373.85 154.37 372.06 154.33 369.73 154.86L373.57 160.99C375.49 159.07 375.74 157.31 374.85 155.88V155.92Z" fill="#E0E0E0"/>
<path d="M341.82 87.71C338.013 90.1239 333.575 91.354 329.069 91.2446C324.562 91.1352 320.19 89.6913 316.504 87.0955C312.819 84.4998 309.986 80.8689 308.365 76.6626C306.744 72.4563 306.408 67.8636 307.398 63.466C308.389 59.0683 310.662 55.0634 313.929 51.9581C317.197 48.8529 321.313 46.7869 325.755 46.0218C330.198 45.2567 334.767 45.8269 338.885 47.66C343.004 49.4932 346.485 52.507 348.89 56.32C350.487 58.8452 351.571 61.6603 352.08 64.6046C352.589 67.5488 352.514 70.5645 351.857 73.4794C351.2 76.3943 349.976 79.1514 348.254 81.5931C346.532 84.0348 344.346 86.1133 341.82 87.71Z" fill="#F5F5F5"/>
<path d="M338.93 83.13C336.029 84.9682 332.647 85.9044 329.213 85.8201C325.78 85.7358 322.448 84.6348 319.64 82.6564C316.832 80.678 314.675 77.9112 313.44 74.7061C312.205 71.5009 311.949 68.0015 312.704 64.6507C313.458 61.2999 315.19 58.2483 317.68 55.882C320.169 53.5158 323.305 51.9413 326.69 51.3577C330.075 50.7742 333.557 51.2078 336.695 52.6038C339.833 53.9998 342.487 56.2953 344.32 59.2C345.538 61.125 346.365 63.2711 346.753 65.5157C347.141 67.7603 347.084 70.0595 346.583 72.2818C346.083 74.504 345.149 76.6059 343.836 78.4673C342.523 80.3287 340.856 81.9131 338.93 83.13Z" fill="#EBEBEB"/>
<path d="M339.38 82.84C339.33 82.75 339.93 82.28 340.91 81.33C342.281 80.0065 343.438 78.4783 344.34 76.8C344.952 75.6467 345.435 74.4294 345.78 73.17C346.171 71.7323 346.372 70.2498 346.38 68.76C346.394 67.954 346.344 67.1481 346.23 66.35C346.119 65.518 345.945 64.6957 345.71 63.89C345.466 63.0577 345.158 62.2453 344.79 61.46C344.405 60.6504 343.964 59.8686 343.47 59.12C342.965 58.3744 342.407 57.6659 341.8 57C341.208 56.3667 340.569 55.7785 339.89 55.24C339.231 54.7199 338.532 54.2518 337.8 53.84C337.104 53.4511 336.378 53.1167 335.63 52.84C334.237 52.2992 332.783 51.9331 331.3 51.75C330.004 51.605 328.696 51.605 327.4 51.75C325.504 51.9579 323.651 52.4607 321.91 53.24C321.276 53.5944 320.605 53.8793 319.91 54.09C320.388 53.5361 320.977 53.0896 321.64 52.78C323.364 51.7742 325.259 51.0962 327.23 50.78C328.6 50.5693 329.989 50.5223 331.37 50.64C332.958 50.7626 334.522 51.099 336.02 51.64C336.834 51.9378 337.623 52.2989 338.38 52.72C339.172 53.1521 339.928 53.647 340.64 54.2C341.383 54.7727 342.082 55.4012 342.73 56.08C343.381 56.7911 343.983 57.5462 344.53 58.34C345.085 59.154 345.577 60.0099 346 60.9C346.404 61.7516 346.738 62.6345 347 63.54C347.249 64.4074 347.426 65.2937 347.53 66.19C347.634 67.0492 347.674 67.9149 347.65 68.78C347.572 71.7728 346.728 74.6956 345.2 77.27C344.185 78.9838 342.859 80.493 341.29 81.72C340.742 82.2269 340.09 82.609 339.38 82.84Z" fill="#E0E0E0"/>
<path d="M322 75.63L319.46 77.28L318 75L320.46 73.4C319.215 71.3493 318.574 68.9888 318.61 66.59L322.18 66.03C322.122 67.9206 322.553 69.7943 323.43 71.47L327.16 69C326.16 66.09 325.16 62.74 328.38 60.63C330.78 59.07 333.97 59.47 336.71 62.78L339.22 61.15L340.69 63.41L338.23 65C339.19 66.6783 339.742 68.559 339.84 70.49L336.32 71.17C336.234 69.7231 335.867 68.3067 335.24 67L331.39 69.51C332.44 72.4 333.39 75.71 330.21 77.78C327.85 79.29 324.7 78.9 322 75.63ZM330.52 66.85L333.74 64.76C332.69 63.76 331.74 63.69 330.97 64.18C330.2 64.67 330.15 65.65 330.48 66.85H330.52ZM327.6 74.3C328.4 73.78 328.4 72.85 328.11 71.65L324.98 73.65C325.93 74.65 326.84 74.77 327.56 74.3H327.6Z" fill="#E0E0E0"/>
<path d="M472.2 450.44C472.2 450.59 372.71 450.7 250.01 450.7C127.31 450.7 27.8 450.59 27.8 450.44C27.8 450.29 127.27 450.18 250.01 450.18C372.75 450.18 472.2 450.3 472.2 450.44Z" fill="#263238"/>
<path d="M87.26 419.74C88.39 415.37 85.52 410.97 82.26 407.8C79 404.63 75.2 401.8 73.53 397.59C70.82 390.79 74.46 381.99 69.84 376.32C67.12 372.98 62.24 371.86 59.84 368.32C58.57 366.45 58.16 364.15 57.66 361.95C55.1066 350.648 49.5594 340.241 41.6 331.82C41.0689 341.878 43.2518 351.895 47.92 360.82C49.79 364.38 52.09 367.82 52.71 371.82C53.71 378.28 50.11 384.94 51.71 391.28C53.52 398.54 61.71 403.4 62.06 410.87C62.39 417.19 56.88 422.73 57.29 429.04C57.6254 431.723 58.588 434.289 60.1 436.53C65 444.69 72.15 450.28 83 450.1L96.32 450.56L87.26 419.74Z" fill="#FF725E"/>
<g opacity="0.3">
<path opacity="0.3" d="M87.26 419.74C88.39 415.37 85.52 410.97 82.26 407.8C79 404.63 75.2 401.8 73.53 397.59C70.82 390.79 74.46 381.99 69.84 376.32C67.12 372.98 62.24 371.86 59.84 368.32C58.57 366.45 58.16 364.15 57.66 361.95C55.1066 350.648 49.5594 340.241 41.6 331.82C41.0689 341.878 43.2518 351.895 47.92 360.82C49.79 364.38 52.09 367.82 52.71 371.82C53.71 378.28 50.11 384.94 51.71 391.28C53.52 398.54 61.71 403.4 62.06 410.87C62.39 417.19 56.88 422.73 57.29 429.04C57.6254 431.723 58.588 434.289 60.1 436.53C65 444.69 72.15 450.28 83 450.1L96.32 450.56L87.26 419.74Z" fill="black"/>
</g>
<path d="M99 450.47C100.218 450.66 101.46 450.637 102.67 450.4C104.142 450.176 105.588 449.811 106.99 449.31C108.924 448.637 110.732 447.647 112.34 446.38C113.305 445.601 114.061 444.594 114.54 443.45C114.945 442.155 115.154 440.807 115.16 439.45C115.19 438.009 115.297 436.57 115.48 435.14C115.736 433.621 116.286 432.167 117.1 430.86C118.67 428.1 121.28 425.49 122.1 421.74C122.92 417.99 122.36 414.07 121.74 410.07C121.12 406.07 120.52 401.72 122.05 397.56C123.58 393.4 126.4 389.63 127.86 384.94C129.32 380.25 128.64 375.09 128.94 370.06C129.039 367.508 129.629 364.998 130.68 362.67C131.76 360.31 133.25 358.09 134.42 355.6C136.78 350.6 137.2 344.9 137.85 339.33C138.163 336.517 138.497 333.68 138.85 330.82C139.051 327.937 139.547 325.082 140.33 322.3C141.229 319.493 142.294 316.741 143.52 314.06C144.149 312.667 144.664 311.226 145.06 309.75C145.286 308.232 145.43 306.703 145.49 305.17C145.638 302.092 145.521 299.008 145.14 295.95C144.78 292.88 144.22 289.83 143.89 286.75L143.83 286.22L143.76 285.61L143.22 285.88C140.397 287.319 137.943 289.389 136.05 291.93C134.203 294.414 132.718 297.148 131.64 300.05C129.42 305.77 128.64 311.77 127.5 317.49C126.36 323.21 125 328.86 122 333.62C120.55 335.99 118.78 338.15 117.23 340.47C115.583 342.725 114.455 345.317 113.93 348.06C113.14 353.69 116.24 358.64 115.6 363.63C115.293 366.081 114.465 368.437 113.17 370.54C111.96 372.67 110.54 374.64 109.17 376.63C107.793 378.564 106.595 380.619 105.59 382.77C104.652 384.882 104.1 387.144 103.96 389.45C103.63 393.94 104.27 398.2 103.96 402.22C103.592 406.049 102.478 409.769 100.68 413.17C99.06 416.44 97.27 419.41 95.77 422.28C95.02 423.72 94.32 425.12 93.77 426.52C93.2376 427.883 92.8455 429.297 92.6 430.74C92.2072 433.256 92.1769 435.815 92.51 438.34C92.8649 441.851 94.1873 445.196 96.33 448C96.6543 448.418 97.0122 448.81 97.4 449.17C97.6679 449.445 97.9627 449.693 98.28 449.91C98.77 450.28 99.04 450.44 99.04 450.44C98.0849 449.692 97.2192 448.836 96.46 447.89C94.4042 445.07 93.153 441.745 92.84 438.27C92.546 435.774 92.6032 433.25 93.01 430.77C93.2665 429.364 93.6617 427.988 94.19 426.66C94.76 425.29 95.46 423.89 96.19 422.47C97.71 419.63 99.52 416.68 101.19 413.38C103.049 409.928 104.205 406.142 104.59 402.24C104.94 398.13 104.33 393.86 104.67 389.47C104.813 387.242 105.355 385.057 106.27 383.02C107.263 380.915 108.448 378.907 109.81 377.02C111.15 375.02 112.59 373.07 113.81 370.89C115.164 368.703 116.034 366.251 116.36 363.7C117 358.38 113.92 353.4 114.72 348.17C115.23 345.543 116.32 343.063 117.91 340.91C119.43 338.63 121.21 336.47 122.71 334.04C125.71 329.14 127.2 323.41 128.31 317.66C129.42 311.91 130.24 305.97 132.43 300.36C133.477 297.536 134.922 294.876 136.72 292.46C138.531 290.022 140.883 288.036 143.59 286.66L142.97 286.32L143.03 286.86C143.37 289.97 143.92 293.03 144.28 296.06C144.656 299.071 144.773 302.109 144.63 305.14C144.576 306.63 144.44 308.115 144.22 309.59C143.84 311.012 143.341 312.401 142.73 313.74C141.499 316.452 140.427 319.233 139.52 322.07C138.72 324.896 138.217 327.799 138.02 330.73C137.7 333.603 137.387 336.443 137.08 339.25C136.44 344.84 136.02 350.44 133.75 355.25C132.62 357.66 131.13 359.89 130.02 362.33C128.936 364.744 128.328 367.345 128.23 369.99C127.94 375.13 128.61 380.16 127.23 384.71C125.85 389.26 122.95 393.02 121.48 397.32C120.01 401.62 120.56 406.16 121.19 410.14C121.82 414.12 122.48 418.05 121.62 421.6C120.76 425.15 118.32 427.76 116.72 430.6C115.883 431.961 115.322 433.473 115.07 435.05C114.892 436.497 114.798 437.952 114.79 439.41C114.788 440.721 114.596 442.024 114.22 443.28C113.775 444.372 113.063 445.334 112.15 446.08C110.585 447.339 108.825 448.335 106.94 449.03C105.556 449.547 104.126 449.932 102.67 450.18C101.775 450.343 100.869 450.433 99.96 450.45C99.36 450.46 99 450.47 99 450.47Z" fill="#263238"/>
<path d="M141.12 293.57C141.062 293.702 141.019 293.839 140.99 293.98C140.91 294.3 140.82 294.69 140.7 295.18C140.44 296.23 140.12 297.81 139.62 299.79C139.12 301.77 137.89 303.99 136.86 306.74C135.644 309.834 134.586 312.988 133.69 316.19C132.69 319.74 131.77 323.69 130.83 327.91C129.89 332.13 128.89 336.65 126.57 340.91C125.48 343.07 124.25 345.26 123.27 347.66C122.311 350.115 121.669 352.682 121.36 355.3C120.688 360.717 119.726 366.095 118.48 371.41C115.81 382.33 113.27 392.72 110.95 402.19L104.64 427.29C102.89 434.39 101.46 440.16 100.46 444.22C100 446.22 99.63 447.72 99.36 448.84C99.26 449.33 99.17 449.73 99.1 450.05C99.0602 450.183 99.04 450.321 99.04 450.46C99.1035 450.336 99.1538 450.205 99.19 450.07L99.53 448.88C99.84 447.77 100.25 446.24 100.78 444.31C101.85 440.25 103.37 434.51 105.23 427.43L111.72 402.38C114.06 392.91 116.62 382.52 119.32 371.6C120.563 366.261 121.521 360.86 122.19 355.42C122.484 352.881 123.092 350.389 124 348C124.94 345.67 126.15 343.49 127.24 341.3C129.59 336.96 130.56 332.3 131.5 328.1C132.44 323.9 133.27 319.93 134.24 316.38C135.21 312.83 136.24 309.68 137.24 306.95C138.24 304.22 139.39 301.95 139.88 299.9C140.37 297.85 140.6 296.31 140.81 295.24C140.89 294.75 140.96 294.35 141.02 294.03C141.071 293.881 141.105 293.727 141.12 293.57Z" fill="#263238"/>
<path d="M101.39 450.56C110.09 445.39 112.59 430.09 108.96 420.64C105.33 411.19 98.96 402.56 97.96 392.49C97.2 384.75 99.74 376.8 97.96 369.23C95.54 359 85.57 351.11 85.69 340.61C85.75 334.72 89.1 329.18 88.84 323.29C88.51 316.08 82.97 310.35 79.54 303.99C74.28 294.26 73.94 282.75 72.14 271.84C70.34 260.93 66.14 249.24 56.52 243.84C55.09 253.1 52.65 259.45 53.42 272C53.69 276.51 58.93 285.13 59.64 295C60.07 300.91 60.36 306.82 60.72 312.73C61.07 318.48 61.44 324.33 63.51 329.73C65.09 333.86 67.62 337.6 68.8 341.86C71 349.86 68.1 358.54 69.88 366.65C71.39 373.52 76.15 379.44 77.12 386.41C78.49 396.2 72.12 406.41 75.39 415.71C77 420.35 80.82 424.07 81.9 428.85C82.74 432.57 81.82 436.5 82.58 440.23C83.81 446.23 95.27 450.91 101.39 450.53" fill="#FF725E"/>
<path d="M58.91 253.07C58.8944 253.246 58.8944 253.424 58.91 253.6C58.91 253.99 59.03 254.49 59.11 255.12C59.31 256.46 59.53 258.42 59.98 260.96C60.43 263.5 61.79 266.39 62.84 269.86C63.89 273.33 65.05 277.31 66.03 281.77C67.01 286.23 67.85 291.18 68.72 296.49C69.59 301.8 70.55 307.6 73.18 313.14C74.4 315.92 75.77 318.7 76.8 321.67C77.804 324.714 78.4189 327.872 78.63 331.07C79.1187 337.864 79.9733 344.628 81.19 351.33C83.85 365.06 86.39 378.13 88.7 390.04C91.01 401.95 93.33 412.57 95.17 421.56C97.01 430.55 98.55 437.73 99.61 442.8C100.14 445.26 100.56 447.19 100.86 448.57C101 449.19 101.12 449.68 101.21 450.06C101.239 450.231 101.286 450.399 101.35 450.56C101.357 450.385 101.336 450.209 101.29 450.04C101.22 449.66 101.14 449.16 101.03 448.53C100.77 447.15 100.4 445.21 99.94 442.73C98.94 437.65 97.52 430.39 95.77 421.44C94.02 412.49 91.84 401.75 89.47 389.88L82.03 351.19C80.8308 344.51 79.9896 337.77 79.51 331C79.2841 327.736 78.6457 324.514 77.61 321.41C76.55 318.41 75.17 315.59 73.94 312.83C71.32 307.38 70.4 301.68 69.46 296.38C68.52 291.08 67.69 286.12 66.66 281.65C65.63 277.18 64.49 273.18 63.33 269.72C62.17 266.26 60.87 263.39 60.33 260.9C59.79 258.41 59.55 256.42 59.33 255.1C59.21 254.48 59.12 253.98 59.05 253.59C59.027 253.411 58.9799 253.236 58.91 253.07Z" fill="#263238"/>
<path d="M438 391C439.352 391.644 440.559 392.555 441.551 393.677C442.542 394.799 443.297 396.109 443.77 397.53C444.695 400.383 444.959 403.41 444.54 406.38C443.89 412.13 440.62 417.92 437.11 422.51C432.27 418.29 431.11 410.93 430.83 407.16C430.31 401.16 432.98 390.11 438 391Z" fill="#FF725E"/>
<path d="M442.72 432C442.397 430.362 442.51 428.669 443.049 427.089C443.588 425.509 444.533 424.099 445.79 423C447.07 421.923 448.551 421.111 450.148 420.611C451.744 420.112 453.424 419.934 455.09 420.09C455.862 420.081 456.627 420.24 457.331 420.556C458.036 420.872 458.663 421.338 459.17 421.92C459.549 422.538 459.756 423.246 459.768 423.97C459.78 424.695 459.598 425.41 459.24 426.04C458.506 427.292 457.454 428.327 456.19 429.04C452 431.67 447.46 433.45 442.72 432.04" fill="#FF725E"/>
<path d="M436.52 449.58C436.543 449.183 436.6 448.788 436.69 448.4C436.84 447.57 437.04 446.5 437.28 445.21C437.815 441.651 438.926 438.202 440.57 435C442.272 431.805 444.795 429.123 447.88 427.23C448.822 426.668 449.829 426.225 450.88 425.91C451.162 425.82 451.449 425.747 451.74 425.69C451.94 425.69 452.05 425.63 452.05 425.69C449.657 426.462 447.443 427.705 445.536 429.345C443.63 430.985 442.071 432.989 440.95 435.24C439.34 438.388 438.208 441.759 437.59 445.24C437.29 446.58 437.05 447.66 436.87 448.4C436.795 448.804 436.678 449.2 436.52 449.58Z" fill="#263238"/>
<path d="M436.7 399.59C436.732 399.762 436.753 399.935 436.76 400.11C436.76 400.49 436.81 400.98 436.85 401.59C436.92 402.87 436.99 404.73 437.07 407.04C437.21 411.64 437.33 418.04 437.3 425.04C437.27 432.04 437.1 438.43 436.91 443.04C436.82 445.34 436.72 447.2 436.64 448.49C436.64 449.09 436.57 449.58 436.54 449.97C436.539 450.142 436.518 450.313 436.48 450.48C436.465 450.307 436.465 450.133 436.48 449.96C436.48 449.58 436.48 449.09 436.48 448.48C436.48 447.14 436.56 445.29 436.61 443.03C436.73 438.43 436.85 432.03 436.88 425.03C436.91 418.03 436.88 411.65 436.77 407.03C436.77 404.77 436.71 402.92 436.68 401.58V400.1C436.672 399.93 436.679 399.759 436.7 399.59Z" fill="#263238"/>
<path d="M434.35 435.46C433.767 431.979 432.363 428.687 430.253 425.858C428.143 423.028 425.39 420.742 422.22 419.19C420.61 418.41 418.49 417.91 417.17 419.11C415.85 420.31 416.17 422.48 416.78 424.11C418.204 427.577 420.622 430.545 423.728 432.641C426.835 434.737 430.492 435.867 434.24 435.89" fill="#FF725E"/>
<path d="M423 424.64C423.347 424.752 423.683 424.9 424 425.08C424.398 425.264 424.786 425.471 425.16 425.7C425.669 425.985 426.163 426.295 426.64 426.63C427.225 427.023 427.789 427.447 428.33 427.9C428.957 428.412 429.558 428.956 430.13 429.53C431.428 430.861 432.572 432.333 433.54 433.92C434.482 435.525 435.237 437.233 435.79 439.01C436.023 439.786 436.213 440.574 436.36 441.37C436.493 442.064 436.59 442.765 436.65 443.47C436.709 444.048 436.735 444.629 436.73 445.21C436.757 445.646 436.757 446.084 436.73 446.52C436.727 446.896 436.687 447.271 436.61 447.64C436.51 447.64 436.68 446.04 436.4 443.5C436.323 442.808 436.209 442.12 436.06 441.44C435.904 440.659 435.704 439.888 435.46 439.13C434.901 437.385 434.15 435.709 433.22 434.13C432.27 432.567 431.154 431.112 429.89 429.79C429.335 429.217 428.751 428.673 428.14 428.16C427.621 427.697 427.077 427.263 426.51 426.86C424.42 425.38 423 424.72 423 424.64Z" fill="#263238"/>
<path d="M367.16 231.21C367.16 231.21 320.47 198.12 314.56 194.87C308.93 191.77 291.06 189.52 289.46 189.13L257.46 182.13L208.58 183.59L194.58 192.02L159.1 208.4C149.43 212.854 141.808 220.809 137.77 230.66L115.37 285.37L171 301.81L172.73 359.52L159.62 450.44H322.3L314.11 276.19L331.05 279.92L367.16 231.21Z" fill="#263238"/>
<path d="M172 278.57C172 278.57 171.41 279 170.28 279.66C168.688 280.627 166.921 281.273 165.08 281.56C162.323 281.753 159.557 281.351 156.97 280.38C153.78 279.318 150.688 277.979 147.73 276.38C144.56 274.73 141.59 273.06 138.81 271.72C136.358 270.496 133.81 269.475 131.19 268.67C129.421 268.138 127.607 267.77 125.77 267.57C125.12 267.5 124.62 267.47 124.27 267.46H123.75C124.417 267.436 125.086 267.459 125.75 267.53C127.596 267.68 129.421 268.015 131.2 268.53C133.834 269.31 136.397 270.314 138.86 271.53C141.66 272.87 144.63 274.53 147.8 276.19C150.749 277.779 153.827 279.117 157 280.19C159.551 281.153 162.278 281.566 165 281.4C166.825 281.132 168.58 280.514 170.17 279.58C170.74 279.26 171.17 279 171.47 278.82C171.77 278.64 172 278.57 172 278.57Z" fill="white"/>
<path d="M169.62 251.61H169.25L168.19 251.56C167.27 251.51 165.94 251.41 164.3 251.25C155.757 250.39 147.358 248.455 139.3 245.49C137.75 244.92 136.51 244.43 135.66 244.07L134.66 243.65L134.32 243.49L134.68 243.61L135.68 243.99C136.54 244.33 137.79 244.8 139.34 245.35C147.419 248.24 155.81 250.17 164.34 251.1C165.97 251.28 167.34 251.41 168.21 251.48L169.27 251.57L169.62 251.61Z" fill="white"/>
<path d="M204.59 194.87C204.59 194.87 204.17 195.55 203.29 196.69C202.035 198.291 200.595 199.738 199 201C196.611 202.85 194.009 204.408 191.25 205.64C187.874 207.15 184.395 208.42 180.84 209.44C177.07 210.56 173.47 211.55 170.24 212.61C167.368 213.519 164.567 214.639 161.86 215.96C160.036 216.848 158.29 217.889 156.64 219.07C156.04 219.47 155.64 219.84 155.32 220.07C155 220.3 154.85 220.41 154.85 220.41C154.85 220.41 155.44 219.87 156.59 219C158.23 217.795 159.97 216.731 161.79 215.82C164.499 214.484 167.303 213.351 170.18 212.43C173.41 211.35 177.02 210.36 180.78 209.24C184.326 208.225 187.798 206.965 191.17 205.47C193.918 204.247 196.515 202.71 198.91 200.89C200.523 199.655 201.989 198.239 203.28 196.67C203.75 196.13 204.04 195.67 204.28 195.36C204.52 195.05 204.59 194.87 204.59 194.87Z" fill="white"/>
<path d="M304.64 202.32C304.64 202.32 304.49 202.25 304.21 202.09C303.93 201.93 303.55 201.69 303.01 201.42C301.522 200.626 299.969 199.957 298.37 199.42C295.992 198.622 293.559 197.997 291.09 197.55C288.31 197.02 285.22 196.61 281.98 196.15L265.4 193.8L260.4 193.06L259.03 192.85L258.56 192.76L259.04 192.81L260.41 192.98L265.41 193.65L282 195.94C285.24 196.39 288.33 196.81 291.12 197.35C293.592 197.804 296.026 198.446 298.4 199.27C300.005 199.824 301.558 200.521 303.04 201.35C304.1 201.94 304.64 202.32 304.64 202.32Z" fill="white"/>
<path d="M282 213.36C282 213.36 281.63 213.54 280.92 213.85C280.21 214.16 279.15 214.61 277.78 215.16C275.03 216.25 271.02 217.76 265.94 219.24C259.996 221.002 253.934 222.339 247.8 223.24C240.87 224.3 233.14 224.3 225.09 224.03C217.04 223.76 209.33 223.42 202.35 223.86C196.167 224.16 190.05 225.276 184.16 227.18C180.192 228.485 176.423 230.333 172.96 232.67C171.77 233.53 170.84 234.21 170.26 234.73C169.68 235.25 169.34 235.48 169.34 235.48C169.34 235.48 169.64 235.2 170.23 234.7C170.82 234.2 171.72 233.48 172.92 232.6C176.37 230.229 180.137 228.358 184.11 227.04C190.01 225.113 196.141 223.98 202.34 223.67C209.34 223.22 217.03 223.56 225.09 223.82C233.15 224.08 240.86 224.1 247.78 223.05C253.907 222.146 259.962 220.81 265.9 219.05C270.97 217.59 274.99 216.1 277.75 215.05C279.13 214.51 280.19 214.05 280.9 213.77L282 213.36Z" fill="white"/>
<path d="M297.32 223.14C297.266 223.18 297.205 223.21 297.14 223.23L296.61 223.42C296.15 223.59 295.48 223.81 294.61 224.05C292.42 224.675 290.157 225.011 287.88 225.05C285.6 225.052 283.331 224.715 281.15 224.05C280.31 223.8 279.64 223.57 279.15 223.39L278.63 223.18L278.45 223.09H278.65L279.18 223.26C279.64 223.42 280.31 223.63 281.18 223.86C283.358 224.467 285.609 224.77 287.87 224.76C290.135 224.695 292.384 224.359 294.57 223.76C295.4 223.53 296.08 223.34 296.57 223.19L297.1 223.04L297.32 223.14Z" fill="white"/>
<path d="M265.77 251.44C265.77 251.44 260.97 252.44 253.14 253.62C249.22 254.21 244.54 254.79 239.33 255.31C234.12 255.83 228.33 256.22 222.33 256.45C216.33 256.68 210.53 256.66 205.33 256.55C200.13 256.44 195.33 256.16 191.43 255.86C183.53 255.26 178.68 254.6 178.68 254.6L179.56 254.67L182.1 254.92C184.3 255.15 187.49 255.43 191.44 255.71C195.39 255.99 200.1 256.22 205.33 256.35C210.56 256.48 216.33 256.45 222.33 256.24C228.33 256.03 234.1 255.6 239.33 255.12C244.56 254.64 249.22 254.04 253.14 253.47C257.06 252.9 260.22 252.4 262.4 252.01L264.91 251.57L265.77 251.44Z" fill="white"/>
<path d="M304.93 248.6H304.57H303.57C302.66 248.6 301.35 248.6 299.73 248.6C296.49 248.6 292.01 248.47 287.09 248.05C282.17 247.63 277.72 246.96 274.54 246.38C272.94 246.1 271.66 245.84 270.77 245.65L269.77 245.43L269.42 245.34H269.78L270.78 245.52L274.55 246.19C277.74 246.73 282.17 247.37 287.09 247.79C292.01 248.21 296.49 248.35 299.72 248.4H303.56H304.56L304.93 248.6Z" fill="white"/>
<path d="M255 289.82C255 289.82 254.71 289.88 254.18 289.95L251.82 290.28C250.82 290.43 249.54 290.6 248.07 290.7C246.6 290.8 244.94 291 243.07 291.03C241.2 291.06 239.2 291.2 237.07 291.16C235.98 291.16 234.86 291.16 233.7 291.16L230.13 291.04C225.24 290.85 219.88 290.48 214.26 290.04C208.64 289.6 203.26 289.04 198.41 288.75C193.56 288.46 189.14 288.24 185.41 288.3H182.78L180.43 288.42C178.97 288.48 177.7 288.55 176.68 288.68L174.31 288.91L173.48 288.98C173.48 288.98 173.77 288.93 174.31 288.87L176.67 288.59C177.67 288.45 178.96 288.38 180.43 288.3L182.78 288.17H185.41C189.11 288.1 193.52 288.28 198.41 288.58C203.3 288.88 208.64 289.38 214.26 289.85C219.88 290.32 225.26 290.71 230.12 290.92L233.68 291.05C234.84 291.05 235.96 291.05 237.05 291.05C239.22 291.05 241.24 291 243.05 290.95C244.86 290.9 246.56 290.73 248.05 290.64C249.54 290.55 250.77 290.4 251.8 290.26L254.16 289.97L255 289.82Z" fill="white"/>
<path d="M313.85 278.08L313.41 278.15L312.13 278.28C311.03 278.4 309.42 278.53 307.44 278.67C303.44 278.94 297.97 279.13 291.9 278.98C285.83 278.83 280.34 278.33 276.39 277.85C274.39 277.61 272.82 277.39 271.72 277.22L270.46 277.02L270.02 276.93L270.46 276.98L271.73 277.14C272.83 277.29 274.43 277.49 276.41 277.71C280.36 278.15 285.83 278.61 291.9 278.77C297.97 278.93 303.46 278.77 307.43 278.52C309.43 278.41 311.02 278.29 312.13 278.2L313.4 278.1L313.85 278.08Z" fill="white"/>
<path d="M314.56 314.42L313.1 314.34C312.1 314.34 310.73 314.14 308.91 314.09C305.27 313.9 300 313.86 293.49 314.18C286.98 314.5 279.27 315.27 270.73 316.4C262.19 317.53 252.83 319 243 320.24C233.716 321.492 224.367 322.203 215 322.37C207.363 322.5 199.729 321.948 192.19 320.72C187.109 319.882 182.108 318.618 177.24 316.94C176.37 316.67 175.62 316.38 174.97 316.12L173.31 315.46C172.42 315.11 171.96 314.91 171.96 314.91L173.33 315.42L174.99 316.06C175.64 316.32 176.4 316.6 177.27 316.87C182.142 318.515 187.143 319.752 192.22 320.57C199.751 321.773 207.374 322.312 215 322.18C224.367 321.992 233.716 321.264 243 320C252.85 318.73 262.21 317.27 270.76 316.17C279.31 315.07 287 314.33 293.49 314C298.627 313.738 303.773 313.738 308.91 314C312.55 314.21 314.56 314.42 314.56 314.42Z" fill="white"/>
<path d="M259.57 351.76C259.57 351.76 254.76 352.58 246.92 353.42C243.01 353.84 238.33 354.22 233.13 354.52C227.93 354.82 222.19 354.96 216.18 354.93C210.17 354.9 204.44 354.62 199.24 354.28C194.04 353.94 189.37 353.46 185.46 352.98C177.63 351.98 172.84 351.14 172.84 351.14L173.72 351.25L176.23 351.62C177.31 351.79 178.65 351.98 180.23 352.17C181.81 352.36 183.55 352.63 185.5 352.83C189.42 353.29 194.09 353.73 199.28 354.09C204.47 354.45 210.2 354.66 216.21 354.72C222.22 354.78 227.95 354.59 233.15 354.33C238.35 354.07 243.02 353.68 246.94 353.27C248.94 353.09 250.67 352.86 252.22 352.69C253.77 352.52 255.11 352.34 256.22 352.19L258.73 351.86L259.57 351.76Z" fill="white"/>
<path d="M314 344.6C314 344.6 313.81 344.67 313.46 344.77L311.93 345.24C310.59 345.64 308.65 346.19 306.24 346.84C301.43 348.13 294.72 349.73 287.24 351.1C279.76 352.47 272.91 353.36 267.95 353.86C265.47 354.11 263.46 354.28 262.07 354.38L260.47 354.49H259.91L260.46 354.42L262.06 354.27C263.45 354.15 265.46 353.95 267.93 353.68C272.93 353.14 279.72 352.24 287.2 350.87C294.68 349.5 301.38 347.92 306.2 346.66C308.61 346.04 310.55 345.51 311.89 345.13L313.44 344.7L314 344.6Z" fill="white"/>
<path d="M221.42 393.45C218.843 393.85 216.246 394.107 213.64 394.22C211.23 394.35 208.35 394.36 205.15 394.22C198.215 393.888 191.344 392.737 184.68 390.79C181.61 389.88 178.89 388.93 176.68 388.02C174.255 387.057 171.882 385.969 169.57 384.76L170.07 384.98L171.48 385.63C172.09 385.92 172.84 386.27 173.73 386.63C174.62 386.99 175.6 387.45 176.73 387.87C178.97 388.77 181.73 389.7 184.73 390.6C188.061 391.541 191.439 392.309 194.85 392.9C198.266 393.44 201.707 393.807 205.16 394C208.35 394.14 211.22 394.15 213.63 394C214.84 394 215.93 393.87 216.89 393.81C217.85 393.75 218.66 393.66 219.34 393.59L220.88 393.43L221.42 393.45Z" fill="white"/>
<path d="M317.62 390.9L316.62 391.08L313.76 391.54C311.28 391.93 307.68 392.48 303.23 393.11C294.33 394.38 282 395.96 268.35 397.32C254.7 398.68 242.29 399.54 233.35 400.04C228.86 400.29 225.22 400.47 222.71 400.57L219.82 400.68H218.82L219.82 400.62L222.71 400.47L233.34 399.88C242.34 399.34 254.7 398.44 268.34 397.09C281.98 395.74 294.34 394.18 303.22 392.95L313.76 391.44L316.62 391.02L317.62 390.9Z" fill="white"/>
<path d="M322.86 427.73C322.86 427.73 320.68 428.19 316.69 428.84C312.7 429.49 306.92 430.3 299.69 430.9C291.259 431.587 282.795 431.794 274.34 431.52C264.79 431.21 254.34 430.14 243.41 428.8C232.48 427.46 222.06 426.11 212.55 425.37C204.127 424.644 195.667 424.453 187.22 424.8C181.516 425.066 175.837 425.714 170.22 426.74C168.22 427.12 166.7 427.44 165.67 427.69L164.09 428.05C164.09 428.05 164.63 427.9 165.66 427.65C166.69 427.4 168.22 427.06 170.2 426.65C175.813 425.589 181.494 424.921 187.2 424.65C195.649 424.271 204.113 424.441 212.54 425.16C222.07 425.9 232.48 427.25 243.41 428.59C254.34 429.93 264.79 431 274.33 431.31C282.777 431.598 291.234 431.408 299.66 430.74C306.85 430.16 312.66 429.37 316.66 428.74C318.66 428.42 320.2 428.17 321.25 427.98L322.86 427.73Z" fill="white"/>
<path d="M352.2 222.26C352.2 222.26 351.91 223.05 351.26 224.43C350.323 226.37 349.232 228.233 348 230C346.166 232.613 344.162 235.102 342 237.45C339.58 240.13 336.8 242.95 334 246.01C331.326 248.857 328.885 251.913 326.7 255.15C324.92 257.796 323.478 260.655 322.41 263.66C321.681 265.707 321.208 267.837 321 270C320.9 270.75 320.93 271.35 320.9 271.75C320.87 272.15 320.9 272.36 320.9 272.36C320.873 271.57 320.893 270.778 320.96 269.99C321.132 267.835 321.579 265.711 322.29 263.67C323.345 260.647 324.78 257.771 326.56 255.11C328.745 251.855 331.19 248.781 333.87 245.92C336.69 242.87 339.48 240.05 341.87 237.38C344.027 235.041 346.031 232.566 347.87 229.97C349.116 228.219 350.223 226.374 351.18 224.45C351.54 223.77 351.75 223.22 351.93 222.86C352.11 222.5 352.2 222.26 352.2 222.26Z" fill="white"/>
<path d="M306.14 239.49L306.48 239.24L307.48 238.56C308.36 237.99 309.59 237.11 311.07 235.97C312.55 234.83 314.26 233.41 316.07 231.73C318.021 229.899 319.873 227.966 321.62 225.94C323.345 223.891 324.964 221.755 326.47 219.54C327.83 217.48 328.98 215.54 329.86 213.93C330.74 212.32 331.42 210.93 331.86 209.93L332.37 208.84L332.56 208.46C331.809 210.352 330.955 212.202 330 214C329.13 215.66 328 217.58 326.63 219.64C325.139 221.873 323.523 224.02 321.79 226.07C320.039 228.105 318.176 230.041 316.21 231.87C314.38 233.54 312.67 234.97 311.21 236.09C309.585 237.318 307.893 238.453 306.14 239.49Z" fill="white"/>
<path d="M234.67 286.25C234.744 286.201 234.825 286.164 234.91 286.14L235.63 285.86C236.28 285.64 237.19 285.24 238.36 284.7C241.613 283.061 244.597 280.937 247.21 278.4C251.063 274.617 254.462 270.399 257.34 265.83C260.952 260.286 264.251 254.543 267.22 248.63C272.547 237.847 277.222 226.753 281.22 215.41C282.79 211.07 284.01 207.53 284.87 205.1L285.87 202.29C285.98 201.99 286.07 201.76 286.14 201.56C286.21 201.36 286.24 201.32 286.24 201.32C286.235 201.409 286.218 201.496 286.19 201.58C286.13 201.78 286.05 202.02 285.96 202.32C285.75 203.01 285.45 203.96 285.06 205.16C284.27 207.62 283.06 211.16 281.56 215.53C277.652 226.93 273.006 238.064 267.65 248.86C264.676 254.79 261.36 260.543 257.72 266.09C254.8 270.67 251.349 274.889 247.44 278.66C244.79 281.196 241.752 283.293 238.44 284.87C237.539 285.287 236.614 285.651 235.67 285.96L234.93 286.19C234.847 286.223 234.759 286.243 234.67 286.25Z" fill="#455A64"/>
<path d="M233 307.41C233.165 307.252 233.346 307.111 233.54 306.99L235.16 305.88C236.55 304.88 238.56 303.47 240.98 301.62C245.83 297.93 252.2 292.42 259.04 286.13C262.48 282.99 265.77 280.02 268.61 277.18C271.149 274.683 273.508 272.01 275.67 269.18C277.12 267.265 278.411 265.235 279.53 263.11C279.95 262.37 280.21 261.76 280.41 261.36C280.505 261.152 280.615 260.951 280.74 260.76C280.69 260.985 280.613 261.203 280.51 261.41C280.33 261.82 280.1 262.41 279.7 263.2C278.645 265.376 277.39 267.448 275.95 269.39C273.828 272.272 271.488 274.987 268.95 277.51C266.11 280.39 262.83 283.37 259.39 286.51C253.591 291.948 247.52 297.088 241.2 301.91C238.75 303.74 236.71 305.12 235.27 306.05C234.56 306.52 233.99 306.85 233.61 307.05C233.415 307.184 233.211 307.304 233 307.41Z" fill="#455A64"/>
<path d="M206 414.32L206.12 414.09C206.23 413.93 206.36 413.72 206.52 413.46C206.87 412.9 207.41 412.1 208.13 411.08C209.58 409.08 211.81 406.21 214.75 402.87C220.68 396.21 228.98 387.14 238.13 377.09L261.64 351.44L268.81 343.7L270.81 341.61L271.33 341.08C271.45 340.96 271.51 340.9 271.52 340.91C271.53 340.92 271.47 340.98 271.37 341.11L270.88 341.68L269 343.83C267.3 345.71 264.9 348.39 261.95 351.67L238.54 377.43L215 403.1C212 406.41 209.76 409.21 208.27 411.2C207.52 412.2 206.96 412.98 206.58 413.51L206.15 414.12C206.111 414.194 206.06 414.262 206 414.32Z" fill="#455A64"/>
<path d="M299.36 234.59C299.198 234.094 299.074 233.585 298.99 233.07C298.88 232.58 298.76 231.97 298.67 231.26C298.58 230.55 298.43 229.74 298.39 228.84C298.35 227.94 298.24 226.95 298.25 225.84C298.26 224.73 298.25 223.64 298.33 222.44C298.677 217.258 299.944 212.179 302.07 207.44C302.58 206.36 303.07 205.33 303.59 204.44C304.11 203.55 304.59 202.66 305.1 201.9C305.61 201.14 306.1 200.47 306.48 199.9C306.83 199.397 307.207 198.913 307.61 198.45C307.914 198.036 308.248 197.645 308.61 197.28C308.351 197.735 308.054 198.167 307.72 198.57C307.42 198.97 307.05 199.46 306.67 200.06C306.29 200.66 305.8 201.31 305.36 202.06C304.92 202.81 304.36 203.67 303.91 204.61C303.46 205.55 302.91 206.61 302.45 207.61C300.385 212.325 299.133 217.357 298.75 222.49C298.69 223.67 298.6 224.79 298.62 225.84C298.64 226.89 298.62 227.84 298.7 228.77C298.78 229.7 298.84 230.47 298.91 231.18C298.98 231.89 299.06 232.5 299.14 233C299.265 233.522 299.338 234.054 299.36 234.59Z" fill="#455A64"/>
<path d="M313.91 270.47C313.79 270.47 311.99 266.55 309.91 261.59C307.83 256.63 306.23 252.59 306.35 252.51C307.832 255.401 309.167 258.365 310.35 261.39C311.695 264.352 312.883 267.383 313.91 270.47Z" fill="#455A64"/>
<path d="M171 238.76C170.92 238.81 170.14 237.38 168.67 235.21C164.83 229.545 159.867 224.729 154.09 221.06C151.88 219.66 150.43 218.92 150.47 218.84C150.838 218.947 151.194 219.095 151.53 219.28C152.2 219.59 153.14 220.09 154.28 220.76C157.24 222.526 159.985 224.631 162.46 227.03C164.929 229.438 167.114 232.123 168.97 235.03C169.67 236.15 170.2 237.08 170.53 237.74C170.721 238.063 170.878 238.405 171 238.76Z" fill="#455A64"/>
<path d="M210.25 215.12C210.192 214.789 210.192 214.451 210.25 214.12C210.42 212.241 211.228 210.476 212.54 209.12L212.6 209.06V209.13C212.671 209.269 212.725 209.417 212.76 209.57C212.76 209.57 212.65 209.44 212.51 209.18H212.6C211.952 209.946 211.422 210.806 211.03 211.73C210.614 212.818 210.352 213.959 210.25 215.12Z" fill="#455A64"/>
<path d="M223.49 222C223.363 221.681 223.292 221.343 223.28 221C223.193 220.181 223.213 219.354 223.34 218.54C223.468 217.727 223.699 216.934 224.03 216.18C224.15 215.862 224.318 215.565 224.53 215.3C224.079 216.354 223.744 217.454 223.53 218.58C223.395 219.715 223.382 220.862 223.49 222Z" fill="#455A64"/>
<path d="M237.92 220.84C237.873 219.907 237.746 218.981 237.54 218.07C237.261 217.174 236.896 216.306 236.45 215.48C236.65 215.676 236.819 215.902 236.95 216.15C237.296 216.732 237.562 217.357 237.74 218.01C237.913 218.663 238.003 219.335 238.01 220.01C238.028 220.29 237.998 220.571 237.92 220.84Z" fill="#455A64"/>
<path d="M250.54 215.31C250.115 214.421 249.613 213.571 249.04 212.77C248.4 212.022 247.697 211.329 246.94 210.7C247.212 210.811 247.465 210.962 247.69 211.15C248.255 211.58 248.762 212.081 249.2 212.64C249.636 213.202 249.998 213.817 250.28 214.47C250.411 214.734 250.499 215.018 250.54 215.31Z" fill="#455A64"/>
<path d="M259.23 206.74C258.909 205.688 258.312 204.742 257.5 204C256.657 203.298 255.636 202.844 254.55 202.69C254.55 202.69 254.65 202.69 254.82 202.69C255.059 202.698 255.297 202.728 255.53 202.78C256.31 202.966 257.033 203.336 257.64 203.86C258.248 204.381 258.719 205.044 259.01 205.79C259.104 206.011 259.171 206.243 259.21 206.48C259.228 206.565 259.235 206.653 259.23 206.74Z" fill="#455A64"/>
<path d="M263.88 190.91C263.111 190.295 262.211 189.864 261.25 189.65C260.275 189.501 259.278 189.583 258.34 189.89C259.243 189.418 260.278 189.26 261.281 189.441C262.284 189.622 263.199 190.132 263.88 190.89V190.91Z" fill="#455A64"/>
<path d="M201.57 204.45C201.589 204.153 201.66 203.862 201.78 203.59C202.312 202.25 203.32 201.154 204.61 200.51C204.871 200.368 205.156 200.273 205.45 200.23C204.544 200.622 203.73 201.201 203.062 201.928C202.393 202.655 201.885 203.514 201.57 204.45Z" fill="#455A64"/>
<path d="M198.41 193.91C198.53 193.617 198.699 193.347 198.91 193.11C199.378 192.5 199.942 191.97 200.58 191.54C201.218 191.102 201.919 190.764 202.66 190.54C202.959 190.435 203.273 190.381 203.59 190.38C201.511 190.914 199.681 192.151 198.41 193.88V193.91Z" fill="#455A64"/>
<path d="M173.55 255.37C173.55 255.37 173.55 255.31 173.49 255.37C173.448 255.473 173.418 255.58 173.4 255.69C173.35 256 173.3 256.45 173.24 257.04C173.12 258.21 172.99 259.91 172.85 262.04C172.56 266.25 172.23 272.04 171.92 278.51C171.61 284.98 171.37 290.77 171.23 294.99C171.16 296.99 171.11 298.73 171.07 299.99C171.07 300.53 171.07 300.99 171.01 301.35C171.025 301.506 171.025 301.664 171.01 301.82C170.966 301.668 170.949 301.508 170.96 301.35C170.96 300.98 170.96 300.53 170.96 299.99C170.96 298.81 170.96 297.1 170.96 294.99C170.96 290.77 171.18 284.93 171.5 278.49C171.82 272.05 172.2 266.23 172.58 262.02C172.77 259.91 172.96 258.21 173.14 257.02C173.23 256.44 173.32 256.02 173.4 255.68C173.428 255.56 173.475 255.445 173.54 255.34C173.54 255.25 173.57 255.39 173.55 255.37Z" fill="#263238"/>
<path d="M283.73 53.38C275.39 50.83 266.73 58.3 258.13 56.62C252.93 55.62 249.01 51.45 244.38 48.87C237.47 45.01 227.69 44.38 220.63 47.97C213.57 51.56 209 55.38 208.05 63.25C201.62 59.56 190.9 67.65 187.25 75.46C183.6 83.27 184.51 91.33 186.58 99.7C190.176 114.136 196.571 127.726 205.4 139.7C206.18 140.76 207.4 141.93 208.61 141.37C208.983 141.109 209.29 140.764 209.505 140.363C209.72 139.961 209.838 139.515 209.85 139.06C211.08 131.41 210.11 123.6 209.44 115.88C208.77 108.16 208.44 100.2 210.89 92.88C213.34 85.56 219.09 78.82 226.69 77.32C232.31 76.21 238.14 78.03 243.13 80.84C248.12 83.65 252.51 87.39 257.26 90.58C262.01 93.77 267.35 96.46 273.07 96.7C278.79 96.94 284.93 94.26 287.36 89.08C289.79 83.9 287.07 76.54 281.47 75.35C284.078 75.1215 286.525 73.9916 288.389 72.1544C290.254 70.3172 291.421 67.8877 291.688 65.2836C291.956 62.6795 291.308 60.0636 289.855 57.8856C288.403 55.7077 286.237 54.1039 283.73 53.35V53.38Z" fill="#263238"/>
<path d="M258 187.53L257.19 171C257.19 171 279.01 166.82 278.52 144.87C278.28 134.28 276 112.49 273.72 92.8C272.544 82.5815 267.562 73.1811 259.765 66.4722C251.968 59.7632 241.93 56.2384 231.65 56.6L229.53 56.67C206.76 58.81 195.84 79.35 198.61 102.06L203.86 190.46C204.283 197.609 207.518 204.3 212.858 209.072C218.197 213.844 225.209 216.31 232.36 215.93C239.52 215.547 246.237 212.344 251.042 207.022C255.847 201.7 258.349 194.692 258 187.53Z" fill="#FFBE9D"/>
<path d="M257.22 171C257.22 171 243.39 172.61 228.33 163.87C228.33 163.87 235.65 179.43 257.47 176.68L257.22 171Z" fill="#EB996E"/>
<path d="M266.33 107.65C266.363 108.465 266.078 109.261 265.535 109.869C264.992 110.478 264.233 110.851 263.42 110.91C263.023 110.956 262.62 110.921 262.236 110.809C261.852 110.697 261.494 110.509 261.184 110.256C260.874 110.004 260.617 109.692 260.429 109.339C260.241 108.986 260.126 108.598 260.09 108.2C260.051 107.384 260.333 106.586 260.875 105.975C261.417 105.364 262.176 104.989 262.99 104.93C263.389 104.883 263.793 104.917 264.179 105.029C264.565 105.141 264.924 105.329 265.236 105.583C265.547 105.837 265.805 106.151 265.993 106.506C266.181 106.861 266.295 107.25 266.33 107.65Z" fill="#263238"/>
<path d="M269.38 103.66C269 104.08 266.57 102.41 263.2 102.54C259.83 102.67 257.42 104.44 257.04 104.04C256.85 103.86 257.22 103.11 258.27 102.29C259.691 101.227 261.406 100.63 263.18 100.58C264.935 100.511 266.666 101.005 268.12 101.99C269.19 102.74 269.56 103.47 269.38 103.66Z" fill="#263238"/>
<path d="M233.21 110C233.246 110.817 232.962 111.615 232.419 112.226C231.875 112.836 231.115 113.211 230.3 113.27C229.903 113.316 229.5 113.281 229.116 113.169C228.732 113.057 228.374 112.869 228.064 112.616C227.754 112.364 227.497 112.052 227.309 111.699C227.121 111.346 227.006 110.958 226.97 110.56C226.934 109.743 227.218 108.945 227.761 108.334C228.305 107.724 229.065 107.349 229.88 107.29C230.277 107.244 230.68 107.279 231.064 107.391C231.448 107.503 231.806 107.691 232.116 107.944C232.426 108.196 232.683 108.508 232.871 108.861C233.059 109.214 233.174 109.602 233.21 110Z" fill="#263238"/>
<path d="M236.26 105.45C235.89 105.87 233.45 104.2 230.08 104.33C226.71 104.46 224.3 106.23 223.92 105.83C223.73 105.65 224.1 104.9 225.15 104.08C226.575 103.017 228.293 102.42 230.07 102.37C231.822 102.302 233.549 102.796 235 103.78C236.07 104.54 236.45 105.26 236.26 105.45Z" fill="#263238"/>
<path d="M249.37 130C249.37 129.8 251.43 129.37 254.81 128.82C255.67 128.7 256.48 128.5 256.61 127.9C256.646 127.009 256.412 126.127 255.94 125.37C255.06 123.32 254.14 121.16 253.17 118.91C249.3 109.7 246.47 102.11 246.85 101.91C247.23 101.71 250.65 109.1 254.51 118.31C255.45 120.577 256.34 122.747 257.18 124.82C257.758 125.839 257.959 127.028 257.75 128.18C257.636 128.488 257.453 128.766 257.216 128.992C256.978 129.219 256.693 129.39 256.38 129.49C255.906 129.636 255.415 129.72 254.92 129.74C251.51 130.13 249.39 130.22 249.37 130Z" fill="#263238"/>
<path d="M239.53 132.71C240.08 132.65 240.22 136.31 243.44 138.8C246.66 141.29 250.54 140.75 250.59 141.26C250.65 141.49 249.75 142 248.1 142.1C245.945 142.22 243.817 141.568 242.1 140.26C240.476 139.005 239.401 137.17 239.1 135.14C238.91 133.61 239.28 132.69 239.53 132.71Z" fill="#263238"/>
<path d="M236 88.17C235.7 89.09 232.32 88.78 228.38 89.39C224.44 90 221.28 91.2 220.73 90.39C220.48 90 221 89.12 222.26 88.19C223.942 87.0379 225.866 86.2857 227.883 85.9911C229.9 85.6964 231.959 85.8671 233.9 86.49C235.36 87 236.12 87.73 236 88.17Z" fill="#263238"/>
<path d="M267.8 94C267.23 94.78 264.88 94.07 262.09 94.13C259.3 94.19 256.95 94.83 256.37 94.04C256.12 93.66 256.47 92.88 257.48 92.12C258.824 91.179 260.43 90.6857 262.07 90.71C263.703 90.6522 265.314 91.103 266.68 92C267.69 92.79 268.05 93.56 267.8 94Z" fill="#263238"/>
<path d="M201 118.24C200.62 118.09 185.77 114.31 186.77 129.24C187.77 144.17 202.61 140.12 202.61 139.69C202.61 139.26 201 118.24 201 118.24Z" fill="#FFBE9D"/>
<path d="M197.62 134.37C197.55 134.37 197.37 134.57 196.94 134.8C196.345 135.12 195.648 135.192 195 135C193.37 134.52 191.87 132.1 191.62 129.4C191.496 128.12 191.66 126.828 192.1 125.62C192.207 125.141 192.429 124.695 192.748 124.322C193.067 123.949 193.473 123.66 193.93 123.48C194.224 123.38 194.545 123.386 194.835 123.497C195.126 123.609 195.368 123.818 195.52 124.09C195.75 124.5 195.67 124.8 195.75 124.82C195.83 124.84 196.06 124.55 195.89 123.94C195.781 123.575 195.552 123.258 195.24 123.04C194.805 122.76 194.278 122.66 193.77 122.76C193.163 122.921 192.608 123.236 192.158 123.674C191.708 124.112 191.378 124.658 191.2 125.26C190.651 126.602 190.439 128.057 190.58 129.5C190.88 132.5 192.58 135.23 194.82 135.71C195.229 135.801 195.654 135.799 196.063 135.704C196.471 135.608 196.853 135.423 197.18 135.16C197.62 134.74 197.67 134.4 197.62 134.37Z" fill="#EB996E"/>
<path d="M278.2 88C273.385 89.417 268.303 89.6709 263.371 88.7409C258.439 87.8108 253.798 85.7233 249.83 82.65C244.33 78.31 239.99 71.95 233.23 70.12C230.927 69.5938 228.542 69.5306 226.214 69.934C223.886 70.3374 221.662 71.1994 219.67 72.47C215.695 75.0307 212.29 78.3839 209.67 82.32C214.3 93.32 211.89 105.87 209.41 117.54C209.274 118.865 208.7 120.107 207.78 121.07C206.06 122.49 203.36 121.52 201.78 119.96C199.21 117.45 198.12 113.82 197.37 110.32C195.512 102.342 195.264 94.0746 196.64 86C198.048 77.898 201.803 70.3874 207.44 64.4C214.779 57.1202 224.663 52.9815 235 52.86C245.283 52.8166 255.318 56.0147 263.68 62C267.56 64.72 271.16 68 273.26 72.29" fill="#263238"/>
<path d="M290.21 58.45C290.273 58.8881 290.242 59.3346 290.12 59.76C289.803 60.9978 289.103 62.1039 288.12 62.92C286.543 64.181 284.607 64.9093 282.59 65C281.35 65.1098 280.102 65.0762 278.87 64.9C277.455 64.7094 276.117 64.1393 275 63.25C274.372 62.7528 273.865 62.1187 273.518 61.3961C273.172 60.6735 272.994 59.8814 273 59.08C273.079 58.2077 273.403 57.3754 273.933 56.6785C274.464 55.9816 275.18 55.4484 276 55.14C276.85 54.7868 277.771 54.6362 278.69 54.7C279.646 54.7949 280.553 55.1667 281.3 55.77C282.051 56.4051 282.656 57.1949 283.074 58.0855C283.492 58.9761 283.712 59.9464 283.72 60.93C283.756 63.0055 282.977 65.0125 281.55 66.52C280.094 68.0619 278.254 69.1902 276.22 69.79C272.1 71.08 267.5 70.46 263.36 68.85C259.343 67.1986 255.531 65.0879 252 62.56C248.746 60.2523 245.304 58.2218 241.71 56.49C238.471 54.9441 234.906 54.2064 231.32 54.34C228.211 54.5664 225.189 55.4746 222.47 57C218.506 59.2573 215.186 62.4938 212.83 66.4C212.163 67.4363 211.552 68.5078 211 69.61C210.83 70.0098 210.633 70.3974 210.41 70.77C210.428 70.6592 210.462 70.5515 210.51 70.45C210.58 70.25 210.69 69.94 210.86 69.55C211.345 68.3986 211.909 67.2825 212.55 66.21C214.843 62.1806 218.162 58.8304 222.17 56.5C224.963 54.9111 228.075 53.9649 231.28 53.73C234.973 53.5575 238.653 54.2887 242 55.86C245.647 57.6077 249.14 59.6617 252.44 62C255.924 64.4859 259.677 66.5692 263.63 68.21C267.68 69.77 272.1 70.37 276.02 69.15C277.927 68.5537 279.644 67.4676 281 66C282.291 64.6565 283.008 62.8632 283 61C283 60.1134 282.809 59.2373 282.44 58.4313C282.071 57.6253 281.532 56.9086 280.86 56.33C280.21 55.8163 279.432 55.4914 278.61 55.3909C277.788 55.2903 276.954 55.418 276.2 55.76C275.474 56.0146 274.835 56.4687 274.356 57.0701C273.876 57.6715 273.576 58.3958 273.49 59.16C273.49 59.8776 273.651 60.586 273.96 61.2332C274.27 61.8805 274.721 62.45 275.28 62.9C276.326 63.735 277.575 64.2768 278.9 64.47C280.097 64.6569 281.312 64.7072 282.52 64.62C284.504 64.5764 286.423 63.9041 288 62.7C288.949 61.9202 289.645 60.8761 290 59.7C290.096 59.2882 290.166 58.8707 290.21 58.45Z" fill="#455A64"/>
<path d="M185 88.47C186.506 88.9453 188.052 89.28 189.62 89.47C191.316 89.5613 193.014 89.3236 194.62 88.77C196.593 88.0696 198.455 87.0896 200.15 85.86C203.212 83.5752 205.448 80.3567 206.52 76.69C206.895 75.1491 207.172 73.586 207.35 72.01C207.459 72.4342 207.499 72.873 207.47 73.31C207.466 74.4975 207.315 75.6799 207.02 76.83C206.062 80.6955 203.784 84.1052 200.58 86.47C198.828 87.7586 196.889 88.7704 194.83 89.47C193.133 90.0286 191.337 90.2228 189.56 90.04C188.374 89.9041 187.215 89.5941 186.12 89.12C185.711 88.9712 185.332 88.7512 185 88.47Z" fill="#455A64"/>
<path d="M186.06 99.3C186.06 99.16 187.84 99.49 190.67 99.23C194.348 98.9165 197.875 97.6207 200.881 95.4781C203.888 93.3355 206.263 90.4247 207.76 87.05C208.93 84.46 209.19 82.69 209.33 82.72C209.357 83.1404 209.317 83.5625 209.21 83.97C208.99 85.0948 208.655 86.1939 208.21 87.25C206.801 90.7965 204.4 93.8622 201.295 96.0806C198.19 98.2991 194.512 99.5764 190.7 99.76C189.558 99.819 188.412 99.7654 187.28 99.6C186.86 99.5649 186.448 99.4637 186.06 99.3Z" fill="#455A64"/>
<path d="M225.56 120.18C225.51 120.19 225.459 120.19 225.409 120.18C225.359 120.17 225.311 120.149 225.269 120.12C225.227 120.092 225.192 120.054 225.164 120.011C225.137 119.968 225.118 119.92 225.11 119.87C225.093 119.821 225.087 119.77 225.091 119.719C225.095 119.668 225.11 119.618 225.134 119.573C225.159 119.528 225.192 119.488 225.233 119.457C225.274 119.425 225.32 119.402 225.37 119.39C225.469 119.38 225.568 119.406 225.649 119.463C225.729 119.521 225.787 119.606 225.81 119.702C225.833 119.798 225.821 119.9 225.775 119.988C225.729 120.076 225.652 120.144 225.56 120.18Z" fill="#EB996E"/>
<path d="M232 118.49C231.892 118.489 231.787 118.452 231.703 118.385C231.619 118.317 231.56 118.223 231.536 118.118C231.511 118.013 231.523 117.902 231.569 117.805C231.616 117.707 231.693 117.628 231.79 117.58C231.901 117.571 232.01 117.604 232.098 117.673C232.185 117.741 232.243 117.84 232.26 117.95C232.295 118.056 232.288 118.172 232.24 118.273C232.191 118.374 232.105 118.452 232 118.49Z" fill="#EB996E"/>
<path d="M236.29 118.23C236.08 118.23 235.88 118.02 235.82 117.69C235.76 117.36 235.89 117.06 236.09 117.03C236.29 117 236.5 117.24 236.56 117.57C236.62 117.9 236.49 118.2 236.29 118.23Z" fill="#EB996E"/>
<path d="M228.87 124.11C228.67 124.11 228.49 124.02 228.49 123.89C228.49 123.76 228.65 123.64 228.85 123.64C229.05 123.64 229.23 123.73 229.23 123.86C229.23 123.99 229.08 124.1 228.87 124.11Z" fill="#EB996E"/>
<path d="M234.73 122.53C234.625 122.536 234.523 122.5 234.444 122.431C234.366 122.362 234.318 122.264 234.31 122.16C234.3 122.108 234.3 122.055 234.311 122.003C234.321 121.951 234.342 121.902 234.372 121.858C234.402 121.815 234.44 121.777 234.484 121.748C234.528 121.719 234.578 121.7 234.63 121.69C234.735 121.687 234.838 121.725 234.916 121.796C234.994 121.867 235.042 121.965 235.05 122.07C235.068 122.173 235.044 122.279 234.984 122.365C234.924 122.451 234.833 122.511 234.73 122.53Z" fill="#EB996E"/>
<path d="M265.35 117.78C265.299 117.79 265.246 117.79 265.195 117.779C265.144 117.768 265.095 117.747 265.052 117.717C265.009 117.688 264.973 117.649 264.945 117.605C264.917 117.561 264.898 117.512 264.89 117.46C264.873 117.411 264.867 117.359 264.871 117.307C264.875 117.255 264.889 117.205 264.914 117.159C264.938 117.113 264.972 117.072 265.012 117.04C265.053 117.007 265.1 116.984 265.15 116.97C265.252 116.957 265.355 116.982 265.44 117.04C265.525 117.099 265.586 117.186 265.61 117.286C265.635 117.386 265.622 117.491 265.574 117.583C265.526 117.674 265.446 117.744 265.35 117.78Z" fill="#EB996E"/>
<path d="M269.72 117.23C269.611 117.22 269.509 117.174 269.43 117.098C269.351 117.022 269.3 116.922 269.286 116.813C269.272 116.705 269.295 116.595 269.353 116.501C269.41 116.408 269.497 116.337 269.6 116.3C269.8 116.3 269.99 116.46 270.03 116.71C270.055 116.82 270.036 116.935 269.979 117.032C269.921 117.129 269.828 117.199 269.72 117.23Z" fill="#EB996E"/>
<path d="M261.47 118C261.407 118.006 261.343 117.994 261.287 117.965C261.23 117.936 261.183 117.891 261.152 117.836C261.12 117.781 261.105 117.717 261.108 117.654C261.112 117.59 261.133 117.529 261.171 117.478C261.208 117.426 261.259 117.387 261.319 117.364C261.378 117.341 261.443 117.336 261.505 117.348C261.567 117.361 261.624 117.392 261.67 117.437C261.715 117.481 261.746 117.538 261.76 117.6C261.772 117.691 261.748 117.783 261.694 117.858C261.641 117.932 261.56 117.983 261.47 118Z" fill="#EB996E"/>
<path d="M264.88 122.31C264.78 122.344 264.671 122.339 264.575 122.296C264.479 122.254 264.402 122.177 264.36 122.08C264.333 122.034 264.316 121.983 264.309 121.931C264.302 121.878 264.306 121.825 264.32 121.774C264.334 121.722 264.358 121.674 264.39 121.633C264.423 121.591 264.464 121.556 264.51 121.53C264.609 121.505 264.713 121.515 264.805 121.558C264.898 121.602 264.972 121.676 265.015 121.768C265.059 121.86 265.07 121.964 265.045 122.063C265.02 122.162 264.962 122.249 264.88 122.31Z" fill="#EB996E"/>
<path d="M268.6 121.42C268.555 121.414 268.512 121.399 268.473 121.376C268.434 121.353 268.4 121.322 268.373 121.286C268.346 121.25 268.326 121.208 268.316 121.164C268.305 121.12 268.303 121.075 268.31 121.03C268.342 120.945 268.405 120.875 268.487 120.836C268.57 120.797 268.664 120.791 268.75 120.82C268.839 120.832 268.919 120.879 268.973 120.95C269.027 121.022 269.051 121.111 269.04 121.2C269.01 121.287 268.948 121.359 268.865 121.4C268.783 121.441 268.688 121.449 268.6 121.42Z" fill="#EB996E"/>
<path d="M261.18 370.64L260.94 348.41C260.94 348.41 246.11 327.86 251.94 305.57C251.94 305.57 261.61 298.77 287.54 302.75C287.54 302.75 320.09 271.04 363.72 279.11C407.35 287.18 411.41 325.19 411.83 335.54C412.25 345.89 412.15 365.99 397.13 385.64L396.13 405.14C396.13 405.14 392.55 412.48 382.2 411.98C371.85 411.48 372.43 409.98 372.43 409.98C372.43 409.98 359.43 420.47 358.87 423.21C358.31 425.95 356.27 436.34 356.27 436.34C356.27 436.34 351.76 442.47 342.03 443.19C338.181 443.463 334.331 442.674 330.9 440.91C329.598 440.251 328.441 439.339 327.495 438.229C326.549 437.118 325.833 435.83 325.39 434.44C324.46 431.362 322.89 428.515 320.782 426.087C318.674 423.658 316.077 421.703 313.16 420.35L306.44 418.59C306.44 418.59 303.73 421.06 294.3 422.07C284.87 423.08 284.83 419.74 284.83 419.74C284.83 419.74 270.16 423.13 259.14 408.74C250.44 397.36 245.71 376.89 261.18 370.64Z" fill="#FF725E"/>
<path d="M351.62 371.92C351.767 371.682 351.931 371.455 352.11 371.24C352.44 370.8 352.93 370.16 353.54 369.32C354.77 367.65 356.49 365.18 358.39 361.99C360.601 358.25 362.52 354.345 364.13 350.31C365.04 348.03 365.89 345.6 366.64 343.05C367.39 340.5 368.02 337.74 367.36 335.05C366.566 332.443 364.863 330.208 362.56 328.75C360.437 327.326 358.164 326.142 355.78 325.22C351.744 323.627 347.501 322.616 343.18 322.22C340.267 321.944 337.333 321.944 334.42 322.22C333.42 322.31 332.59 322.41 332.04 322.49C331.767 322.547 331.489 322.577 331.21 322.58C331.478 322.495 331.752 322.431 332.03 322.39C332.56 322.28 333.36 322.14 334.4 322.02C337.323 321.657 340.275 321.6 343.21 321.85C347.594 322.18 351.905 323.161 356 324.76C358.423 325.68 360.734 326.871 362.89 328.31C365.299 329.834 367.074 332.179 367.89 334.91C368.59 337.78 367.89 340.64 367.16 343.19C366.43 345.74 365.53 348.19 364.6 350.49C362.966 354.539 361.006 358.448 358.74 362.18C357.21 364.691 355.541 367.115 353.74 369.44C353.1 370.27 352.58 370.89 352.23 371.3C352.047 371.526 351.843 371.734 351.62 371.92Z" fill="#263238"/>
<path d="M290.62 303.72C290.696 303.881 290.747 304.053 290.77 304.23C290.867 304.741 290.891 305.263 290.84 305.78C290.588 307.693 289.709 309.469 288.34 310.83C286.71 312.63 284.23 314.1 281.81 316.08C279.159 318.212 276.712 320.585 274.5 323.17C270.473 327.869 267.225 333.183 264.88 338.91C263.98 341.11 263.39 342.91 262.99 344.21C262.82 344.8 262.67 345.29 262.55 345.68C262.509 345.853 262.449 346.021 262.37 346.18C262.372 346 262.399 345.822 262.45 345.65C262.55 345.25 262.66 344.76 262.8 344.15C263.275 342.328 263.856 340.535 264.54 338.78C266.8 332.958 270.036 327.564 274.11 322.83C276.342 320.224 278.82 317.84 281.51 315.71C283.98 313.71 286.46 312.3 288.08 310.58C289.423 309.285 290.319 307.597 290.64 305.76C290.707 305.081 290.7 304.397 290.62 303.72Z" fill="#263238"/>
<g opacity="0.5">
<path opacity="0.5" d="M308.06 306.44L321.33 309.83C321.33 309.83 340.76 288 362.1 282.47L354.1 280.58C336.563 284.535 320.562 293.522 308.06 306.44Z" fill="black"/>
</g>
<path d="M357.77 281.42C340.32 285.344 324.442 294.399 312.18 307.42L308.06 306.42C308.06 306.42 326.88 285.77 354.11 280.56L357.77 281.42Z" fill="#FF725E"/>
<g opacity="0.7">
<path opacity="0.7" d="M357.77 281.42C340.32 285.344 324.442 294.399 312.18 307.42L308.06 306.42C308.06 306.42 326.88 285.77 354.11 280.56L357.77 281.42Z" fill="black"/>
</g>
<path d="M254.77 375.17C262.12 364.65 280.56 367.87 288.97 377.33C297.38 386.79 301.11 399.81 295.64 411.03C293.3 415.82 288.82 420.03 283.49 419.93C286.149 416.947 288.055 413.37 289.046 409.498C290.038 405.627 290.087 401.574 289.19 397.68C287.48 389.83 282.53 382.9 276.27 377.86C273.1 375.3 269.53 372.49 265.47 372.09C261.41 371.69 258.16 371.57 254.77 375.17Z" fill="#FF725E"/>
<g opacity="0.3">
<path opacity="0.3" d="M254.77 375.17C262.12 364.65 280.56 367.87 288.97 377.33C297.38 386.79 301.11 399.81 295.64 411.03C293.3 415.82 288.82 420.03 283.49 419.93C286.149 416.947 288.055 413.37 289.046 409.498C290.038 405.627 290.087 401.574 289.19 397.68C287.48 389.83 282.53 382.9 276.27 377.86C273.1 375.3 269.53 372.49 265.47 372.09C261.41 371.69 258.16 371.57 254.77 375.17Z" fill="black"/>
</g>
<g opacity="0.3">
<path opacity="0.3" d="M352.36 371.3C352.22 373.53 354.26 375.5 356.47 375.76C357.586 375.827 358.702 375.628 359.726 375.18C360.75 374.731 361.653 374.046 362.36 373.18C363.753 371.431 364.773 369.417 365.36 367.26C367.66 360.05 368.85 349.26 367.64 341.83C364.46 351.5 358.78 363.56 352.19 371.32" fill="black"/>
</g>
<g opacity="0.3">
<path opacity="0.3" d="M359.33 338.05C357.9 333.82 353.52 331.35 349.33 329.89C345.033 328.391 340.545 327.509 336 327.27C334.57 327.114 333.124 327.254 331.75 327.68C331.068 327.902 330.455 328.294 329.967 328.819C329.478 329.344 329.132 329.984 328.96 330.68C328.87 331.251 328.958 331.835 329.212 332.354C329.466 332.873 329.874 333.301 330.38 333.58C337.627 341.968 343.033 351.782 346.25 362.39C346.387 362.857 346.647 363.278 347.003 363.609C347.358 363.94 347.797 364.168 348.272 364.271C348.748 364.373 349.242 364.345 349.702 364.19C350.163 364.035 350.573 363.759 350.89 363.39C354.29 359.51 356.25 354.28 358.01 349.32C359.27 345.68 360.57 341.7 359.33 338.05Z" fill="black"/>
</g>
<g opacity="0.3">
<path opacity="0.3" d="M263.72 340C259.175 332.929 256.835 324.665 257 316.26C257 314.49 257.26 312.57 258.49 311.31C259.98 309.78 262.4 309.75 264.49 309.89C270.381 310.258 276.235 311.08 282 312.35C282.45 312.45 283 312.6 283.14 313.03C283.298 313.361 283.346 313.734 283.275 314.094C283.205 314.455 283.021 314.783 282.75 315.03C273.8 320.52 267.45 330.62 264.07 340.5" fill="black"/>
</g>
<path d="M252.57 306.36C252.589 306.864 252.566 307.37 252.5 307.87C252.42 308.87 252.33 310.24 252.27 311.97C251.966 318.967 252.845 325.965 254.87 332.67C255.55 334.86 256.26 336.79 256.94 338.39C257.62 339.99 258.21 341.26 258.64 342.12C258.894 342.557 259.101 343.02 259.26 343.5C258.957 343.097 258.69 342.669 258.46 342.22C257.97 341.38 257.33 340.12 256.61 338.53C255.766 336.671 255.031 334.765 254.41 332.82C253.67 330.428 253.075 327.994 252.63 325.53C251.875 321.062 251.63 316.523 251.9 312C252.01 310.27 252.15 308.86 252.3 307.9C252.34 307.379 252.431 306.863 252.57 306.36Z" fill="#FAFAFA"/>
<path d="M353.33 279.86C353.164 279.943 352.99 280.006 352.81 280.05L351.31 280.49C350.65 280.67 349.85 280.89 348.93 281.19C348.01 281.49 346.93 281.78 345.82 282.19C343.51 282.96 340.82 283.99 337.87 285.25C334.92 286.51 331.75 288.07 328.52 289.87C325.29 291.67 322.33 293.6 319.7 295.43C317.07 297.26 314.8 299.06 312.95 300.63C312 301.38 311.19 302.13 310.46 302.76C309.73 303.39 309.12 303.95 308.63 304.42L307.47 305.47C307.2 305.71 307.05 305.83 307.04 305.81C307.144 305.66 307.265 305.523 307.4 305.4L308.49 304.27C308.96 303.78 309.55 303.2 310.27 302.55C310.99 301.9 311.77 301.13 312.71 300.35C314.54 298.74 316.81 296.93 319.42 295.04C322.274 293.019 325.227 291.143 328.27 289.42C331.326 287.724 334.467 286.185 337.68 284.81C340.68 283.57 343.38 282.57 345.68 281.81C346.84 281.42 347.9 281.15 348.83 280.88C349.76 280.61 350.57 280.41 351.24 280.26L352.76 279.92C352.946 279.871 353.138 279.851 353.33 279.86Z" fill="#FAFAFA"/>
<path d="M365 332.7C364.92 332.79 363.41 331.25 360.51 329.4C358.809 328.326 357.023 327.393 355.17 326.61C352.908 325.663 350.565 324.924 348.17 324.4C343.792 323.439 339.292 323.166 334.83 323.59C331.41 323.94 329.34 324.51 329.31 324.4C329.782 324.223 330.267 324.083 330.76 323.98C332.075 323.639 333.411 323.389 334.76 323.23C339.265 322.685 343.83 322.909 348.26 323.89C350.693 324.424 353.071 325.187 355.36 326.17C357.229 326.981 359.02 327.962 360.71 329.1L361.71 329.79L362.58 330.48C363.054 330.831 363.501 331.215 363.92 331.63C364.308 331.957 364.669 332.315 365 332.7Z" fill="#FAFAFA"/>
<path d="M275.55 418.31C275.384 418.29 275.223 418.247 275.07 418.18C274.619 418.043 274.175 417.882 273.74 417.7C272.121 417.06 270.558 416.284 269.07 415.38C264.107 412.41 259.975 408.233 257.059 403.238C254.143 398.243 252.537 392.592 252.39 386.81C252.332 385.072 252.422 383.332 252.66 381.61C252.73 381 252.84 380.53 252.89 380.21C252.918 380.047 252.958 379.887 253.01 379.73C253.002 380.366 252.952 381.001 252.86 381.63C252.701 383.349 252.664 385.076 252.75 386.8C252.998 392.499 254.632 398.051 257.508 402.977C260.385 407.903 264.419 412.053 269.26 415.07C270.724 415.988 272.247 416.806 273.82 417.52C274.93 418 275.56 418.27 275.55 418.31Z" fill="#FAFAFA"/>
<g opacity="0.2">
<path opacity="0.2" d="M278.17 395.21C277.392 394.945 276.554 394.912 275.758 395.117C274.963 395.321 274.244 395.753 273.69 396.36C273.15 396.978 272.755 397.709 272.535 398.5C272.315 399.291 272.276 400.122 272.42 400.93C272.57 402.495 273.243 403.964 274.33 405.1C275.232 405.973 276.387 406.537 277.63 406.71C278.406 406.692 279.163 406.462 279.817 406.044C280.471 405.626 280.998 405.037 281.34 404.34C281.771 403.54 282.031 402.659 282.103 401.753C282.176 400.848 282.059 399.937 281.761 399.078C281.463 398.22 280.99 397.433 280.372 396.767C279.754 396.101 279.004 395.571 278.17 395.21Z" fill="black"/>
</g>
<path d="M276.62 395C275.9 395.869 275.412 396.908 275.203 398.017C274.994 399.127 275.071 400.271 275.426 401.343C275.781 402.415 276.402 403.379 277.232 404.145C278.062 404.91 279.073 405.452 280.17 405.72C279.72 406.124 279.181 406.415 278.597 406.569C278.013 406.724 277.401 406.738 276.81 406.61C275.342 406.122 274.08 405.155 273.228 403.863C272.375 402.572 271.982 401.032 272.11 399.49C272.173 398.226 272.687 397.026 273.56 396.11C274.407 395.374 275.498 394.978 276.62 395Z" fill="#FF725E"/>
<g opacity="0.4">
<path opacity="0.4" d="M276.62 395C275.9 395.869 275.412 396.908 275.203 398.017C274.994 399.127 275.071 400.271 275.426 401.343C275.781 402.415 276.402 403.379 277.232 404.145C278.062 404.91 279.073 405.452 280.17 405.72C279.72 406.124 279.181 406.415 278.597 406.569C278.013 406.724 277.401 406.738 276.81 406.61C275.342 406.122 274.08 405.155 273.228 403.863C272.375 402.572 271.982 401.032 272.11 399.49C272.173 398.226 272.687 397.026 273.56 396.11C274.407 395.374 275.498 394.978 276.62 395Z" fill="black"/>
</g>
<g opacity="0.2">
<path opacity="0.2" d="M263.43 389.52C262.679 389.269 261.871 389.242 261.104 389.441C260.338 389.639 259.645 390.056 259.11 390.64C258.588 391.236 258.206 391.942 257.993 392.705C257.78 393.468 257.742 394.27 257.88 395.05C258.046 396.549 258.695 397.953 259.73 399.05C260.603 399.89 261.72 400.432 262.92 400.6C263.667 400.584 264.395 400.363 265.025 399.961C265.655 399.559 266.162 398.991 266.49 398.32C266.904 397.547 267.154 396.696 267.223 395.822C267.292 394.948 267.179 394.068 266.892 393.24C266.604 392.411 266.148 391.651 265.553 391.007C264.957 390.364 264.234 389.85 263.43 389.5" fill="black"/>
</g>
<path d="M261.94 389.34C261.241 390.178 260.768 391.18 260.565 392.251C260.361 393.323 260.435 394.429 260.778 395.464C261.122 396.5 261.724 397.43 262.527 398.168C263.331 398.906 264.309 399.426 265.37 399.68C264.935 400.07 264.414 400.352 263.849 400.503C263.284 400.655 262.692 400.671 262.12 400.55C260.704 400.076 259.487 399.14 258.666 397.893C257.845 396.645 257.466 395.158 257.59 393.67C257.648 392.455 258.141 391.301 258.98 390.42C259.809 389.697 260.88 389.311 261.98 389.34" fill="#FF725E"/>
<g opacity="0.4">
<path opacity="0.4" d="M261.94 389.34C261.241 390.178 260.768 391.18 260.565 392.251C260.361 393.323 260.435 394.429 260.778 395.464C261.122 396.5 261.724 397.43 262.527 398.168C263.331 398.906 264.309 399.426 265.37 399.68C264.935 400.07 264.414 400.352 263.849 400.503C263.284 400.655 262.692 400.671 262.12 400.55C260.704 400.076 259.487 399.14 258.666 397.893C257.845 396.645 257.466 395.158 257.59 393.67C257.648 392.455 258.141 391.301 258.98 390.42C259.809 389.697 260.88 389.311 261.98 389.34" fill="black"/>
</g>
<path d="M301.37 362C301.37 362 301.47 362 301.51 361.93H301.58L301.37 362Z" fill="#263238"/>
<path d="M308.93 365.12C308.455 363.841 307.536 362.777 306.34 362.12C305.391 361.645 304.342 361.401 303.28 361.41H303.19C302.599 361.446 302.025 361.617 301.51 361.91C300.4 362.463 299.449 363.291 298.749 364.315C298.049 365.339 297.622 366.525 297.51 367.76C297.44 369.34 297.839 370.904 298.658 372.257C299.477 373.61 300.678 374.69 302.11 375.36C303.055 375.846 304.134 376.008 305.18 375.82C306.216 375.524 307.122 374.886 307.75 374.01C308.707 372.761 309.319 371.282 309.526 369.722C309.733 368.163 309.528 366.576 308.93 365.12Z" fill="#263238"/>
<path d="M270.46 352.27C270.501 352.246 270.545 352.226 270.59 352.21H270.65L270.46 352.27Z" fill="#263238"/>
<path d="M277 355C276.598 353.875 275.797 352.935 274.75 352.36C273.932 351.947 273.027 351.734 272.11 351.74H272C271.489 351.774 270.993 351.924 270.55 352.18C269.586 352.657 268.76 353.374 268.153 354.262C267.545 355.149 267.176 356.178 267.08 357.25C267.021 358.618 267.369 359.973 268.081 361.143C268.794 362.313 269.837 363.245 271.08 363.82C271.885 364.297 272.844 364.442 273.754 364.226C274.665 364.01 275.456 363.448 275.96 362.66C276.781 361.582 277.309 360.31 277.491 358.967C277.674 357.625 277.504 356.258 277 355Z" fill="#263238"/>
<path d="M279 371.71C279.211 371.724 279.419 371.764 279.62 371.83C280.209 371.98 280.79 372.16 281.36 372.37C283.465 373.141 285.446 374.216 287.24 375.56C289.925 377.545 292.209 380.023 293.97 382.86C296.106 386.345 297.527 390.22 298.15 394.26C298.788 398.292 298.741 402.403 298.01 406.42C297.48 409.744 296.044 412.859 293.86 415.42C292.357 417.117 290.411 418.36 288.24 419.01C287.457 419.267 286.633 419.379 285.81 419.34C286.613 419.231 287.405 419.057 288.18 418.82C290.277 418.109 292.145 416.848 293.59 415.17C295.677 412.64 297.042 409.592 297.54 406.35C298.239 402.383 298.269 398.327 297.63 394.35C297.02 390.377 295.637 386.562 293.56 383.12C291.846 380.317 289.629 377.856 287.02 375.86C285.262 374.515 283.335 373.406 281.29 372.56C279.86 372 279 371.76 279 371.71Z" fill="#263238"/>
<path d="M269.45 359.88C269.4 359.88 269.14 359.7 268.87 359.23C268.545 358.613 268.371 357.927 268.36 357.23C268.363 356.533 268.535 355.847 268.86 355.23C269.13 354.76 269.38 354.54 269.44 354.58C269.147 355.448 268.959 356.348 268.88 357.26C268.972 358.152 269.163 359.031 269.45 359.88Z" fill="#FAFAFA"/>
<path d="M299.6 370.93C299.54 370.93 299.29 370.7 299.07 370.17C298.8 369.466 298.727 368.702 298.86 367.96C298.974 367.22 299.292 366.527 299.78 365.96C300.16 365.52 300.48 365.36 300.52 365.41C299.999 366.227 299.611 367.122 299.37 368.06C299.284 369.023 299.362 369.993 299.6 370.93Z" fill="#FAFAFA"/>
<path d="M318.57 423.77C318.52 423.85 317.31 423.01 315.19 421.95C312.413 420.61 309.542 419.474 306.6 418.55C303.15 417.43 300.01 416.47 297.76 415.67C296.64 415.28 295.76 414.94 295.12 414.67C294.793 414.557 294.481 414.406 294.19 414.22C295.439 414.521 296.67 414.888 297.88 415.32C300.14 416.03 303.3 416.93 306.76 418.06C309.73 418.983 312.609 420.178 315.36 421.63C315.89 421.9 316.36 422.19 316.75 422.44C317.097 422.646 317.431 422.873 317.75 423.12C318.051 423.3 318.326 423.518 318.57 423.77Z" fill="#263238"/>
<path d="M389.52 391.56C389.251 392.054 388.944 392.525 388.6 392.97C388 393.86 387.05 395.11 385.84 396.61C382.621 400.479 379.126 404.109 375.38 407.47C371.01 411.47 366.94 414.86 364.06 417.42L360.66 420.42C360.264 420.814 359.835 421.176 359.38 421.5C359.725 421.062 360.106 420.654 360.52 420.28C361.28 419.51 362.41 418.43 363.82 417.11C366.64 414.48 370.67 411 375.02 407.05C378.747 403.7 382.264 400.123 385.55 396.34C386.8 394.88 387.79 393.67 388.44 392.82C388.767 392.373 389.128 391.951 389.52 391.56Z" fill="#263238"/>
<g opacity="0.2">
<path opacity="0.2" d="M372.52 410.08C377.9 410.52 384.01 408.87 387.83 405.08C389.747 403.128 391.042 400.651 391.549 397.963C392.057 395.275 391.754 392.496 390.68 389.98C387.54 394.46 384 399.22 379.68 402.88C376.96 405.19 375.15 407.99 372.52 410.11" fill="black"/>
</g>
<g opacity="0.5">
<path opacity="0.5" d="M353.36 284.31C360.36 294.61 374.71 297.87 381.65 308.19C384.34 312.19 385.65 316.91 386.95 321.55L402.95 379.28C403.61 366.77 400.6 354.39 397.6 342.22C394.653 330.22 391.697 318.22 388.73 306.22C388.241 303.535 387.265 300.963 385.85 298.63C384.27 296.36 381.92 294.77 379.63 293.23C371.41 287.71 362.95 282.09 353.31 279.89" fill="black"/>
</g>
<g opacity="0.3">
<path opacity="0.3" d="M304.28 315.49C304.72 316.89 302.8 318.8 299.81 321.17C298.3 322.35 296.54 323.7 294.6 325.17C292.66 326.64 290.6 328.25 288.43 329.99C286.26 331.73 284.3 333.46 282.43 334.99C280.56 336.52 278.93 338.05 277.43 339.28C274.5 341.73 272.25 343.22 270.96 342.5C269.67 341.78 269.76 338.94 271.47 334.96C272.493 332.651 273.792 330.475 275.34 328.48C279.129 323.569 284.002 319.603 289.58 316.89C291.85 315.787 294.244 314.958 296.71 314.42C301 313.59 303.86 314.15 304.28 315.49Z" fill="white"/>
</g>
<path d="M277.53 394.41C276.796 394.676 276.034 394.86 275.26 394.96C274.524 395.214 273.763 395.392 272.99 395.49C273.58 394.933 274.334 394.582 275.14 394.49C275.909 394.214 276.745 394.186 277.53 394.41Z" fill="#FAFAFA"/>
<path d="M262.35 388.9C261.655 389.065 260.95 389.188 260.24 389.27C259.11 389.52 258.24 389.99 258.18 389.86C258.12 389.73 258.88 389.04 260.12 388.76C260.482 388.634 260.866 388.582 261.249 388.606C261.632 388.63 262.006 388.73 262.35 388.9Z" fill="#FAFAFA"/>
<path d="M329.67 435.4C329.53 435.47 328.2 433.23 326.35 430.6C324.5 427.97 322.85 425.96 322.96 425.86C324.437 427.152 325.723 428.647 326.78 430.3C327.975 431.858 328.947 433.574 329.67 435.4Z" fill="#FAFAFA"/>
<path d="M270.1 330.45C270.24 330.54 268.27 333.45 266.56 337.35C264.85 341.25 264.03 344.66 263.87 344.62C263.893 343.854 264.027 343.096 264.27 342.37C264.727 340.579 265.332 338.83 266.08 337.14C266.821 335.447 267.701 333.818 268.71 332.27C269.094 331.607 269.561 330.995 270.1 330.45Z" fill="#FAFAFA"/>
<path d="M318.58 311.09C316.654 310.902 314.765 310.441 312.97 309.72C311.118 309.156 309.352 308.341 307.72 307.3C307.79 307.16 310.15 308.18 313.14 309.22C316.13 310.26 318.62 310.94 318.58 311.09Z" fill="#FAFAFA"/>
<path d="M396.58 294.88C394.242 298.072 390.804 300.284 386.93 301.09C388.684 300.302 390.396 299.424 392.06 298.46C393.626 297.344 395.135 296.149 396.58 294.88Z" fill="#EB996E"/>
<path d="M425.87 288.19C420.49 275.79 366.75 231.77 366.75 231.77L336.45 271.11C336.89 270.52 385.88 300.36 385.88 300.36L400.33 366.24L402.82 378C402.82 378 396.32 383.67 396.59 389.65C396.76 393.65 387.59 402.26 387.59 402.26C385.41 400.45 384.01 399.94 382.91 400.15L373.16 409.28L375.48 411.4C378.066 413.76 381.471 415.019 384.97 414.91L401.64 414.4C404.017 414.331 406.274 413.337 407.93 411.63C413.06 406.36 423.88 394.57 424.09 388.89C424.22 385.71 424.24 382.68 424.23 380.24C424.18 380.21 431.24 300.59 425.87 288.19Z" fill="#FFBE9D"/>
<path d="M409.91 393.54C409.635 393.789 409.32 393.992 408.98 394.14C408.37 394.48 407.43 394.88 406.34 395.48C405.084 396.205 403.975 397.158 403.07 398.29C401.925 399.718 400.577 400.971 399.07 402.01C396.283 403.865 392.974 404.777 389.63 404.61C389.044 404.609 388.462 404.508 387.91 404.31C387.687 404.232 387.492 404.089 387.35 403.901C387.208 403.712 387.124 403.486 387.11 403.25C387.101 403.103 387.128 402.956 387.189 402.821C387.25 402.687 387.343 402.57 387.46 402.48C387.63 402.38 387.74 402.4 387.74 402.41C387.74 402.42 387.65 402.41 387.52 402.56C387.434 402.649 387.369 402.756 387.333 402.875C387.296 402.993 387.289 403.118 387.31 403.24C387.339 403.429 387.421 403.605 387.547 403.749C387.672 403.892 387.837 403.997 388.02 404.05C388.545 404.207 389.093 404.275 389.64 404.25C392.889 404.313 396.081 403.385 398.79 401.59C400.256 400.58 401.573 399.368 402.7 397.99C403.655 396.831 404.827 395.869 406.15 395.16C407.29 394.59 408.24 394.25 408.88 393.96C409.211 393.791 409.555 393.65 409.91 393.54Z" fill="#EB996E"/>
<path d="M402.29 402.22C402.36 402.35 400.98 403.16 399.5 404.42C398.02 405.68 396.98 406.89 396.86 406.8C397.405 405.71 398.2 404.764 399.18 404.04C400.051 403.187 401.12 402.562 402.29 402.22Z" fill="#EB996E"/>
<path d="M409 374.93C409 375.08 407.53 375.17 405.92 375.93C404.31 376.69 403.29 377.76 403.18 377.65C403.809 376.707 404.683 375.954 405.709 375.471C406.735 374.988 407.872 374.794 409 374.91V374.93Z" fill="#EB996E"/>
<path d="M398.6 407.36C398.6 407.45 397.53 406.93 395.73 406.51C392.736 405.771 389.592 405.902 386.67 406.89C386.344 407.013 386.01 407.113 385.67 407.19C385.297 407.258 384.912 407.176 384.6 406.96L382 405C381.161 404.446 380.375 403.816 379.65 403.12C380.548 403.576 381.408 404.104 382.22 404.7L384.91 406.53C385.34 406.86 385.91 406.61 386.54 406.38C387.195 406.153 387.863 405.966 388.54 405.82C390.96 405.342 393.458 405.445 395.83 406.12C396.541 406.323 397.234 406.587 397.9 406.91C398.37 407.18 398.62 407.33 398.6 407.36Z" fill="#EB996E"/>
<path d="M285.53 254.56C279.12 252.73 276.28 251.94 276.28 251.94V249H278.83C281.39 249 285.07 245.81 285.07 245.81L290.54 237.44L291.24 232.07C290.66 225.45 282.68 228.07 282.68 228.07C282.3 225.76 272.08 223.44 264.4 222.01C261.828 221.529 259.181 221.626 256.651 222.294C254.12 222.961 251.77 224.183 249.77 225.87L242.4 232.09L220.32 251.4L163.32 299.55L125.85 288.49C125.85 288.49 113.93 324.94 112 338C108.27 363.09 142.76 379.81 158 366.9C169.82 356.9 238.76 282.62 250.18 270.31H250.27C257.27 269.42 269.15 262.31 269.15 262.31L275.24 263.03C275.24 263.03 291.42 266.12 293.34 262.95C294.78 260.5 291.94 256.39 285.53 254.56Z" fill="#FFBE9D"/>
<path d="M252.34 247.28C252.34 247.28 252.5 247.51 252.69 247.98C252.967 248.643 253.188 249.329 253.35 250.03C253.893 252.348 253.982 254.749 253.61 257.1C253.242 259.452 252.413 261.709 251.17 263.74C250.801 264.355 250.379 264.937 249.91 265.48C249.58 265.87 249.38 266.07 249.35 266.04C249.32 266.01 249.99 265.12 250.85 263.56C253.121 259.463 253.882 254.7 253 250.1C252.65 248.35 252.25 247.31 252.34 247.28Z" fill="#EB996E"/>
<path d="M256.47 226.86C256.674 226.808 256.881 226.771 257.09 226.75C257.51 226.69 258.09 226.61 258.9 226.54C261.135 226.295 263.391 226.318 265.62 226.61C267.167 226.838 268.673 227.289 270.09 227.95C271.736 228.7 273.189 229.815 274.34 231.21C275.651 232.763 276.377 234.727 276.39 236.76C276.371 237.838 276.101 238.896 275.6 239.85C275.067 240.812 274.393 241.688 273.6 242.45C272.104 243.896 270.466 245.185 268.71 246.3C267.879 246.86 266.999 247.342 266.08 247.74C265.604 247.93 265.092 248.015 264.58 247.99C264.314 247.977 264.053 247.908 263.815 247.788C263.577 247.667 263.368 247.497 263.2 247.29C262.892 246.879 262.74 246.373 262.77 245.86C262.781 245.393 262.865 244.931 263.02 244.49C263.308 243.673 263.702 242.896 264.19 242.18C265.071 240.888 266.251 239.828 267.63 239.09L267.69 239.44L260.87 238.14L259.02 237.76C258.801 237.729 258.586 237.672 258.38 237.59C258.601 237.59 258.822 237.61 259.04 237.65L260.9 237.94L267.75 239.07L268.28 239.16L267.81 239.42C266.502 240.149 265.385 241.177 264.55 242.42C264.088 243.107 263.721 243.854 263.46 244.64C263.29 245.013 263.212 245.421 263.233 245.83C263.254 246.239 263.373 246.637 263.58 246.99C263.889 247.276 264.281 247.457 264.7 247.508C265.118 247.558 265.542 247.475 265.91 247.27C266.793 246.885 267.637 246.417 268.43 245.87C270.155 244.774 271.764 243.504 273.23 242.08C273.994 241.407 274.618 240.59 275.066 239.675C275.514 238.76 275.777 237.766 275.84 236.75C275.831 234.835 275.156 232.982 273.93 231.51C272.827 230.162 271.437 229.079 269.86 228.34C268.486 227.68 267.025 227.222 265.52 226.98C263.322 226.658 261.095 226.577 258.88 226.74L257.06 226.85C256.865 226.878 256.666 226.882 256.47 226.86Z" fill="#EB996E"/>
<path d="M282.76 228.38C282.861 228.732 282.918 229.094 282.93 229.46C283.028 230.457 283.069 231.459 283.05 232.46C283.057 235.776 282.198 239.037 280.56 241.92C278.56 245.27 275.43 247.43 272.84 247.77C272.324 247.841 271.799 247.787 271.308 247.613C270.818 247.439 270.376 247.15 270.02 246.77C269.835 246.559 269.692 246.315 269.6 246.05C269.559 245.963 269.542 245.866 269.55 245.77C269.722 246.08 269.931 246.368 270.17 246.63C270.523 246.945 270.944 247.176 271.399 247.304C271.855 247.433 272.334 247.455 272.8 247.37C275.18 246.98 278.2 244.85 280.11 241.63C281.699 238.813 282.581 235.653 282.68 232.42C282.81 229.93 282.67 228.38 282.76 228.38Z" fill="#EB996E"/>
<path d="M268.61 256.94C268.55 256.87 269.07 256.42 269.69 255.52C270.486 254.363 270.981 253.026 271.13 251.63C271.257 250.229 271.027 248.818 270.46 247.53C270.03 246.53 269.61 245.99 269.68 245.94C270.166 246.314 270.548 246.806 270.79 247.37C271.495 248.69 271.794 250.188 271.65 251.677C271.506 253.167 270.925 254.58 269.98 255.74C269.63 256.247 269.159 256.659 268.61 256.94Z" fill="#EB996E"/>
<path d="M258.89 238C259.25 238.67 259.364 239.445 259.21 240.19C259.146 241.011 258.907 241.809 258.51 242.53C258.057 243.411 257.485 244.225 256.81 244.95C255.538 246.22 254.006 247.199 252.32 247.82C251.656 248.142 250.954 248.377 250.23 248.52C250.837 248.115 251.488 247.78 252.17 247.52C253.754 246.819 255.197 245.836 256.43 244.62C257.076 243.925 257.634 243.152 258.09 242.32C258.48 241.659 258.738 240.929 258.85 240.17C258.938 239.45 258.952 238.723 258.89 238Z" fill="#EB996E"/>
<path d="M301.41 240.94L273.28 256.27C273.28 256.27 288.33 260 302 274.45C309.431 282.321 315.248 291.572 319.12 301.68L347.12 283.04C347.12 283.04 332.05 248.9 301.41 240.94Z" fill="#455A64"/>
<path d="M278.24 255.7L300.95 242.7H301.02H301.09C305.106 243.781 308.967 245.371 312.58 247.43C316.686 249.806 320.516 252.63 324 255.85C327.863 259.393 331.403 263.271 334.58 267.44C338.025 271.885 341.079 276.62 343.71 281.59L343.82 281.8L343.62 281.93L342.15 282.93L320.53 297.38L320.27 297.55L320.16 297.27C317.103 289.705 312.901 282.656 307.7 276.37C303.567 271.443 298.787 267.097 293.49 263.45C290.034 261.052 286.35 259.002 282.49 257.33C281.13 256.75 280.07 256.33 279.34 256.1L278.52 255.82L278.24 255.72L278.53 255.78L279.37 256.02C280.11 256.25 281.18 256.62 282.55 257.17C286.465 258.783 290.205 260.794 293.71 263.17C299.061 266.797 303.889 271.141 308.06 276.08C313.319 282.387 317.569 289.471 320.66 297.08L320.29 296.97L341.9 282.5L343.37 281.5L343.28 281.83C340.666 276.891 337.635 272.184 334.22 267.76C331.067 263.611 327.554 259.749 323.72 256.22C320.256 253.013 316.45 250.196 312.37 247.82C308.796 245.759 304.976 244.16 301 243.06H301.14L278.24 255.7Z" fill="white"/>
<path d="M324.29 264.94C323.55 269.27 318.07 271.89 312.04 270.79C306.01 269.69 301.7 265.29 302.44 260.96C303.18 256.63 308.66 254.01 314.69 255.11C320.72 256.21 325 260.61 324.29 264.94Z" fill="#FAFAFA"/>
<path d="M311.18 266.33L310.18 267.41L309.06 266.32L310 265.32C309.195 264.475 308.611 263.445 308.3 262.32L310.19 261.5C310.442 262.545 310.979 263.501 311.74 264.26C312.51 265.01 313.01 265.07 313.3 264.75C314.3 263.67 309.85 260.84 312.13 258.32C313.13 257.26 314.65 257.07 316.33 258.32L317.33 257.26L318.45 258.35L317.5 259.35C318.131 260.047 318.602 260.872 318.88 261.77L317.02 262.64C316.77 261.78 316.314 260.993 315.69 260.35C314.91 259.6 314.38 259.6 314.08 259.93C313.14 260.93 317.55 263.8 315.29 266.3C314.36 267.33 312.84 267.53 311.18 266.33Z" fill="#455A64"/>
<path d="M284.66 252.09C284.66 252.09 289.43 254.51 284.85 258.09L277.85 255.37L284.66 252.09Z" fill="#FAFAFA"/>
<path d="M297.47 244.89C297.47 244.89 302.07 249.75 306.47 244.69L301.05 242.88L297.47 244.89Z" fill="#FAFAFA"/>
<path d="M317.54 290.77C317.54 290.77 323.73 285.77 327.34 292.53L320.43 297.15L317.54 290.77Z" fill="#FAFAFA"/>
<path d="M340.38 276.2C340.38 276.2 335.91 279 338.94 284.77L343.52 281.71L340.38 276.2Z" fill="#FAFAFA"/>
<path d="M323.81 292.42C323.798 292.789 323.678 293.147 323.464 293.449C323.25 293.75 322.951 293.982 322.607 294.114C322.262 294.247 321.885 294.275 321.524 294.195C321.163 294.115 320.834 293.931 320.577 293.665C320.321 293.399 320.148 293.063 320.082 292.699C320.015 292.335 320.057 291.96 320.203 291.62C320.348 291.281 320.59 290.991 320.899 290.788C321.208 290.585 321.57 290.478 321.94 290.48C322.19 290.484 322.438 290.537 322.667 290.637C322.897 290.737 323.105 290.881 323.278 291.061C323.452 291.241 323.589 291.454 323.68 291.688C323.771 291.921 323.815 292.17 323.81 292.42Z" fill="#455A64"/>
<path d="M342.57 280.49C342.556 280.857 342.435 281.211 342.221 281.509C342.008 281.807 341.711 282.036 341.368 282.167C341.026 282.298 340.652 282.325 340.294 282.245C339.936 282.165 339.61 281.982 339.355 281.718C339.1 281.454 338.929 281.121 338.862 280.76C338.796 280.399 338.837 280.027 338.98 279.689C339.123 279.352 339.363 279.063 339.669 278.861C339.975 278.658 340.333 278.55 340.7 278.55C340.95 278.554 341.198 278.607 341.427 278.707C341.657 278.807 341.865 278.951 342.038 279.131C342.212 279.311 342.349 279.524 342.44 279.758C342.531 279.991 342.575 280.24 342.57 280.49Z" fill="#455A64"/>
<path d="M303.93 244.7C303.93 245.39 302.93 245.95 301.78 245.95C300.63 245.95 299.64 245.39 299.64 244.7C299.64 244.01 300.64 243.45 301.79 243.45C302.94 243.45 303.93 244 303.93 244.7Z" fill="#455A64"/>
<path d="M285.65 255.07C285.747 255.501 285.709 255.951 285.539 256.358C285.37 256.766 285.078 257.11 284.704 257.345C284.33 257.579 283.892 257.692 283.451 257.667C283.011 257.641 282.589 257.48 282.244 257.205C281.899 256.929 281.648 256.554 281.526 256.13C281.404 255.706 281.416 255.254 281.562 254.837C281.707 254.421 281.979 254.06 282.339 253.804C282.698 253.548 283.129 253.411 283.57 253.41C284.065 253.362 284.558 253.508 284.947 253.818C285.335 254.128 285.587 254.577 285.65 255.07Z" fill="#455A64"/>
<path d="M302.89 254C302.89 255.06 301.57 255.92 299.94 255.92C298.31 255.92 297 255.09 297 254C297 252.91 298.32 252.08 299.95 252.08C301.58 252.08 302.89 253 302.89 254Z" fill="#FAFAFA"/>
<path d="M326.58 279.72C325.25 280.33 323.58 279.49 322.92 277.85C322.553 277.154 322.468 276.343 322.682 275.585C322.896 274.828 323.393 274.182 324.07 273.78C325.4 273.17 327.07 274.01 327.73 275.66C328.096 276.355 328.181 277.164 327.967 277.92C327.753 278.676 327.256 279.32 326.58 279.72Z" fill="#FAFAFA"/>
<path d="M285.08 245.81L296.63 258C296.63 258 301.25 263.29 304.36 260.79C307.47 258.29 303.1 253.63 302.18 252.27C301.26 250.91 289.94 237.18 289.94 237.18L285.08 245.81Z" fill="#FFBE9D"/>
<path d="M291 234.85C290.955 235.572 290.803 236.283 290.55 236.96C290.074 238.63 289.403 240.237 288.55 241.75C287.68 243.272 286.569 244.643 285.26 245.81C284.745 246.321 284.142 246.734 283.48 247.03C283.96 246.503 284.471 246.006 285.01 245.54C286.204 244.342 287.242 242.998 288.1 241.54C290.09 238 290.86 234.79 291 234.85Z" fill="#EB996E"/>
<path d="M183.58 282.43C183.418 282.624 183.237 282.802 183.04 282.96L181.43 284.4L175.43 289.61C170.34 293.98 163.27 299.99 155.43 306.54C147.59 313.09 140.3 319 135 323.08C132.36 325.16 130.19 326.79 128.67 327.91L126.91 329.16C126.714 329.318 126.503 329.455 126.28 329.57C126.458 329.394 126.649 329.23 126.85 329.08L128.55 327.74C130.03 326.58 132.16 324.91 134.77 322.8C140 318.59 147.16 312.69 155.04 306.14C162.92 299.59 169.98 293.66 175.18 289.33L181.29 284.24L182.97 282.88C183.159 282.712 183.364 282.561 183.58 282.43Z" fill="#EB996E"/>
</svg>
