<svg width="36" height="38" viewBox="0 0 36 38" fill="none" xmlns="http://www.w3.org/2000/svg">
<path d="M31.1488 0H4.85111C2.17197 0 0 2.24677 0 5.01839V32.2231C0 34.9947 2.17188 37.2415 4.85111 37.2415H17.821L17.8431 23.9334H14.5009C14.0666 23.9334 13.7141 23.5701 13.7124 23.1207L13.6964 18.831C13.6947 18.3792 14.0483 18.0121 14.485 18.0121H17.8211V13.8671C17.8211 9.05687 20.661 6.43767 24.8089 6.43767H28.2127C28.6482 6.43767 29.0013 6.8029 29.0013 7.2535V10.8706C29.0013 11.321 28.6484 11.6862 28.2131 11.6865L26.1243 11.6875C23.8685 11.6875 23.4317 12.7964 23.4317 14.4237V18.0122H28.3885C28.8608 18.0122 29.2272 18.4388 29.1716 18.924L28.6801 23.2138C28.633 23.6243 28.2965 23.9336 27.897 23.9336H23.4538L23.4317 37.2416H31.149C33.8281 37.2416 36 34.9949 36 32.2234V5.01839C35.9999 2.24677 33.828 0 31.1488 0Z" fill="#999999"/>
</svg>
