<svg width="62" height="83" viewBox="0 0 62 83" fill="none" xmlns="http://www.w3.org/2000/svg">
<path d="M17.1947 15.5625H44.8053L50.7642 10.7762C52.793 9.15075 53.5508 6.51204 52.6931 4.04971C51.8354 1.58738 49.6069 0 47.0167 0H14.9833C12.3931 0 10.1646 1.59083 9.30689 4.04971C8.44922 6.50858 9.207 9.15075 11.2323 10.7727L17.1947 15.5625Z" fill="white"/>
<path d="M45.2772 20.75H16.7228C7.316 30.0218 0 46.2898 0 59.6562C0 71.2728 6.12422 83 19.8056 83H43.0556C54.7426 83 62 74.0533 62 59.6562C62 46.2898 54.684 30.0218 45.2772 20.75ZM29.6911 49.2812H32.3089C36.3354 49.2812 39.6111 52.5701 39.6111 56.6129C39.6111 60.2476 37.0002 63.2391 33.5833 63.8478V66.5695C33.5833 68.0012 32.426 69.1632 31 69.1632C29.574 69.1632 28.4167 68.0012 28.4167 66.5695V63.9792H24.9722C23.5462 63.9792 22.3889 62.8172 22.3889 61.3854C22.3889 59.9537 23.5462 58.7917 24.9722 58.7917H32.3089C33.4869 58.7917 34.4444 57.8302 34.4444 56.6475C34.4444 55.4302 33.4869 54.4688 32.3089 54.4688H29.6911C25.6646 54.4688 22.3889 51.1799 22.3889 47.1371C22.3889 43.5024 24.9998 40.5109 28.4167 39.9023V37.1771C28.4167 35.7453 29.574 34.5833 31 34.5833C32.426 34.5833 33.5833 35.7453 33.5833 37.1771V39.7708H37.0278C38.4538 39.7708 39.6111 40.9328 39.6111 42.3646C39.6111 43.7963 38.4538 44.9583 37.0278 44.9583H29.6911C28.5131 44.9583 27.5556 45.9198 27.5556 47.1025C27.5556 48.3198 28.5131 49.2812 29.6911 49.2812Z" fill="white"/>
</svg>
